<svg width="802" height="495" viewBox="0 0 802 495" xmlns="http://www.w3.org/2000/svg" xmlns:xlink="http://www.w3.org/1999/xlink" style="background:#f7f7f7"><title>2--process--double-diamond-2</title><defs><path id="a" d="M397 0h8v495h-8z"/><path id="b" d="M256 0h8v495h-8z"/><path id="c" d="M115 0h8v495h-8z"/><path id="d" d="M538 0h8v495h-8z"/><path id="e" d="M679 0h8v495h-8z"/><path d="M120.203 272.96l-.203.232h.406L238.7 408.536c7.075 8.857 14.252 13.344 21.53 13.462 7.28.117 14.456-4.137 21.532-12.765l118.903-136.041h.264l-.132-.151.203-.233h-.406L282.3 137.464c-7.075-8.857-14.252-13.344-21.53-13.462-7.28-.117-14.456 4.137-21.532 12.765L120.335 272.808h-.264l.132.151z" id="f"/><path d="M401.203 272.96l-.203.232h.406L519.7 408.536c7.075 8.857 14.252 13.344 21.53 13.462 7.28.117 14.456-4.137 21.532-12.765l118.903-136.041h.264l-.132-.151.203-.233h-.406L563.3 137.464c-7.075-8.857-14.252-13.344-21.53-13.462-7.28-.117-14.456 4.137-21.532 12.765L401.335 272.808h-.264l.132.151z" id="g"/><circle id="h" cx="401.5" cy="273.5" r="16.5"/></defs><g fill="none" fill-rule="evenodd"><path fill="#F7F7F7" d="M268 0h125v495H268zM127 0h125v495H127zM409 0h125v495H409z"/><use fill="#FFDFDF" xlink:href="#a"/><path stroke="#FFF" stroke-width="4" d="M395-2h12v499h-12z"/><use fill="#FFDFDF" xlink:href="#b"/><path stroke="#FFF" stroke-width="4" d="M254-2h12v499h-12z"/><use fill="#FFDFDF" xlink:href="#c"/><path stroke="#FFF" stroke-width="4" d="M113-2h12v499h-12z"/><use fill="#FFDFDF" xlink:href="#d"/><path stroke="#FFF" stroke-width="4" d="M536-2h12v499h-12z"/><use fill="#FFDFDF" xlink:href="#e"/><path stroke="#FFF" stroke-width="4" d="M677-2h12v499h-12z"/><path fill="#F7F7F7" d="M550 0h125v495H550z"/><use fill="#FFF" xlink:href="#f"/><path stroke="#FC4E4E" stroke-width="3" d="M400.929 272.746l-1.058-.925-1.066 1.22.995 1.138 1.129-.987v-.446zm-280.858.508l1.058.925 1.066-1.22-.995-1.138-1.129.987v.446zm278.734-.213l.66.755.448.512H401v-1.5l-.071-.062v-1.054h-.945l-1.18 1.349zm-276.61-.082l-.66-.755-.448-.512H120v1.5l.071.062v1.054h.945l1.18-1.349zm0 0l118.173-135.205c6.841-8.341 13.622-12.361 20.377-12.252 6.764.11 13.562 4.36 20.383 12.898l117.677 134.64-118.173 135.206c-6.841 8.341-13.622 12.361-20.377 12.252-6.764-.11-13.562-4.36-20.383-12.898L122.195 272.96z"/><g><use fill="#FFF" xlink:href="#g"/><path stroke="#FC4E4E" stroke-width="3" d="M681.929 272.746l-1.058-.925-1.066 1.22.995 1.138 1.129-.987v-.446zm-280.858.508l1.058.925 1.066-1.22-.995-1.138-1.129.987v.446zm278.734-.213l.66.755.448.512H682v-1.5l-.071-.062v-1.054h-.945l-1.18 1.349zm-276.61-.082l-.66-.755-.448-.512H401v1.5l.071.062v1.054h.945l1.18-1.349zm0 0l118.173-135.205c6.841-8.341 13.622-12.361 20.377-12.252 6.764.11 13.562 4.36 20.383 12.898l117.677 134.64-118.173 135.206c-6.841 8.341-13.622 12.361-20.377 12.252-6.764-.11-13.562-4.36-20.383-12.898L403.195 272.96z"/></g><g><use fill="#FFF" xlink:href="#h"/><circle stroke="#FC4E4E" stroke-width="4" cx="401.5" cy="273.5" r="14.5"/></g><circle fill="#FC4E4E" cx="401.5" cy="273.5" r="8.5"/><text font-family="ProximaNova-Bold, Proxima Nova" font-size="24" font-weight="bold" fill="#000"><tspan x="135" y="53">Problem</tspan></text><text font-family="ProximaNova-Bold, Proxima Nova" font-size="24" font-weight="bold" fill="#000"><tspan x="418" y="53">Solution</tspan></text><g font-size="18" font-family="ProximaNova-Bold, Proxima Nova" fill="#FC4E4E" font-weight="bold"><text transform="translate(135 63)"><tspan x="0" y="18">Discover</tspan></text><text transform="translate(135 63)"><tspan x="141" y="18">Define</tspan></text><text transform="translate(135 63)"><tspan x="283" y="18">Develop</tspan></text><text transform="translate(135 63)"><tspan x="423" y="18">Deliver</tspan></text></g></g></svg>