<svg width="121" height="25" viewBox="0 0 121 25" xmlns="http://www.w3.org/2000/svg"><title>logo--zalando</title><g fill-rule="nonzero" fill="#FFF"><path d="M40.34 20.29h-10.4c-.35 0-.61-.27-.61-.63v-1.3c-.01-.32.09-.46.29-.71L37.9 7.8h-8.11c-.35 0-.61-.27-.61-.63v-.92c0-.35.26-.63.61-.63h10.5c.35 0 .61.27.61.63v1.33c0 .24-.08.44-.26.66l-8.29 9.88h8c.35 0 .61.27.61.63v.92c-.01.35-.27.62-.62.62zm20.49.27c.75-.01 1.3-.17 1.51-.41.07-.09.11-.19.1-.29-.01-.08-.01-.08-.21-1.06l-.01-.02c-.04-.26-.22-.37-.37-.37h-.02s-.19-.01-.37-.01c-.53-.02-.97-.1-.98-.89V.84c0-.28-.16-.56-.48-.57h-.09l-1.45.38c-.25.03-.5.21-.49.54v16.36c.01 1.94 1.02 3.01 2.86 3.01zm29.36-.27h-1.3c-.35 0-.61-.27-.61-.63V9.64c-.02-1.7-.52-2.17-2.3-2.19-2.01 0-4.05.52-4.73.71v11.51c0 .36-.24.63-.58.63h-1.32c-.35 0-.61-.27-.61-.63V8.42c-.02-1.04.08-1.76 1.52-2.24 1.38-.49 4.03-.9 5.78-.9 3.33 0 4.76 1.24 4.76 4.12v10.27c-.01.35-.27.62-.61.62zM103.2 7.86c-.48-.13-1.83-.44-3.35-.44-2.79.03-3.96.8-3.99 5.56.03 5.22 1.55 5.5 4.02 5.53v.11-.12c1.54 0 2.86-.33 3.33-.46V7.86h-.01zm.69 12.24l-.15.04c-.82.21-1.95.51-3.93.51h-.01c-5.45-.01-6.53-2.83-6.53-7.7.01-5.58 1.73-7.66 6.37-7.67 1.64 0 2.76.22 3.57.42l-.01-4.5c-.01-.2.08-.46.54-.54l1.45-.38h.08c.33.01.45.31.45.57v16.9c.02 1.06-.1 1.97-1.83 2.35zm10.57-1.63c-3.57-.02-3.75-1.9-3.78-5.5.03-3.62.2-5.51 3.78-5.53 3.57.02 3.76 1.91 3.78 5.53-.03 3.6-.21 5.49-3.78 5.5zm0-13.2c-5.89.01-6.39 3.98-6.4 7.7 0 3.71.5 7.66 6.4 7.67 5.89-.01 6.39-3.95 6.4-7.67-.01-3.89-.51-7.69-6.4-7.7zm-40.85 7.78c-.59.01-3.45.05-4.59.3l-.09.02c-1.28.29-2.29.53-2.31 2.47 0 2.45 1.83 2.67 3.7 2.68v.11-.11c1.17 0 2.28-.17 3.29-.51v-4.96zm2.53-3.57v7.78c.03 1.93-.46 2.55-2.36 3-.83.18-2.11.38-3.49.39-2.03-.01-6.26-.01-6.27-4.69-.01-3.68 2.14-4.33 4.75-4.73 1.71-.28 3.45-.32 4.33-.32h.48V9.58c-.01-.88-.01-1.41-.81-1.72-.49-.21-1.23-.31-2.32-.31-1.8 0-3.42.41-4.49.69l-.41.1c-.04.01-.09.02-.15.03a.49.49 0 0 1-.47-.37l-.01-.02-.24-1.25v-.07c0-.29.21-.47.41-.53.86-.33 3.14-.85 5.6-.85 1.79 0 3.09.24 3.96.73 1.5.8 1.49 2.28 1.49 3.47zm-23.68 8.54c-1.01.34-2.12.51-3.29.51v.11-.11c-1.87-.02-3.7-.23-3.7-2.68.01-1.95 1.02-2.18 2.31-2.47l.09-.02c1.14-.25 4-.3 4.59-.3v4.96zM53.5 6.01c-.87-.49-2.17-.73-3.96-.73-2.46 0-4.73.52-5.6.85-.19.06-.4.24-.41.53v.06l.24 1.25.01.03c.08.25.28.37.47.37.06 0 .11-.01.15-.03l.41-.1c1.07-.27 2.69-.69 4.49-.69 1.09 0 1.83.1 2.33.31.8.31.8.84.81 1.72v1.31h-.49c-.88 0-2.62.04-4.33.32-2.61.41-4.77 1.05-4.75 4.74 0 4.68 4.23 4.69 6.27 4.69 1.38 0 2.65-.21 3.49-.39 1.9-.45 2.38-1.07 2.36-3V9.48c-.01-1.19-.01-2.67-1.49-3.47zM22 9.58c-1.71-2.15-4.09-4.23-7.22-6.11l-.01-.01C11.63 1.62 8.67.55 6 .11 4.34-.17 3.54.15 3.18.37c-.36.21-1.03.76-1.63 2.37C.59 5.33.03 8.49 0 12.2v.01c.02 3.71.59 6.88 1.55 9.47.6 1.62 1.27 2.16 1.63 2.38.36.21 1.16.54 2.82.26 2.67-.44 5.62-1.52 8.77-3.36l.01-.01c3.13-1.88 5.51-3.96 7.22-6.11 1.06-1.34 1.19-2.21 1.19-2.63 0-.42-.12-1.29-1.19-2.63"/></g></svg>