<svg width="85" height="42" viewBox="0 0 85 42" xmlns="http://www.w3.org/2000/svg"><title>logo--aok</title><path d="M45.481.517c-8.56 0-15.5 7.055-15.5 15.78 0 8.722 6.94 15.782 15.5 15.782 8.58 0 15.531-7.06 15.532-15.781C61.013 7.572 54.06.517 45.48.517zm32.75.687L65.794 13.048V1.267h-3.406v30.125h3.437V17.048L78.638 31.36h4.718L68.67 14.954l.094-.094L82.95 1.204h-4.719zm-53.125.063L1.981 31.36h4.282l5.78-7.5h13.063v7.532h3.407V1.267h-3.407zm20.375 2.687c6.698 0 12.156 5.53 12.157 12.344 0 6.809-5.46 12.312-12.157 12.312-6.68 0-12.093-5.503-12.093-12.312 0-6.814 5.413-12.344 12.093-12.344zm.063 1.781l-2.5 2.72a3.435 3.435 0 0 0-.875 2.28c0 1.735 1.277 3.15 2.906 3.375v4.72l-2.531-1.47c.736-1.59.167-3.516-1.375-4.406a3.278 3.278 0 0 0-2.344-.375l-3.594.875 1.094 3.563c.25.75.779 1.43 1.531 1.875 1.444.843 3.233.445 4.25-.844l2.969 1.75v4.062h-7.594l.719.813h14.594l.687-.813H45.92v-4.062l2.969-1.75c1.012 1.294 2.832 1.69 4.28.844a3.509 3.509 0 0 0 1.532-1.875l1.094-3.563-3.594-.875a3.26 3.26 0 0 0-2.344.375c-1.54.888-2.099 2.786-1.375 4.375l-2.562 1.5v-4.687c1.682-.195 3-1.648 3-3.407 0-.87-.343-1.678-.875-2.28l-2.5-2.72zM25.106 6.86v13.844H14.481L25.106 6.86zm20.438.157l1.781 1.968c.146.158.302.34.406.532.191.365.313.782.313 1.218 0 1.402-1.109 2.532-2.5 2.532-1.374 0-2.5-1.13-2.5-2.532 0-.436.123-.853.312-1.218.104-.193.234-.374.407-.532l1.78-1.968zm-6 6.343c.42.008.826.118 1.219.344 1.19.688 1.607 2.256.937 3.469-.688 1.216-2.244 1.647-3.437.969a2.504 2.504 0 0 1-.875-.875 2.566 2.566 0 0 1-.282-.625l-.75-2.563 2.563-.625c.205-.05.409-.096.625-.094zm11.906 0c.23-.002.447.044.656.094l2.563.625-.75 2.563c-.06.218-.168.438-.281.625-.223.345-.506.66-.875.875-1.202.678-2.75.247-3.438-.97-.665-1.212-.257-2.78.938-3.468a2.42 2.42 0 0 1 1.187-.344zM16.731 34.423c-1.844-.008-2.656 1.626-2.656 3.344 0 2.216 1.181 3.312 2.5 3.312.997 0 1.4-.582 1.688-.969l.125.813h.75v-3.438h-2.282v1.063h1.282c-.237 1.282-1.063 1.406-1.313 1.406-.776 0-1.594-.469-1.594-2.187 0-1.618.747-2.25 1.563-2.25.802 0 1.187.786 1.187 1.03h1.157c-.063-.862-.73-2.124-2.407-2.124zm-16.656.156v6.344h2.344c1.785 0 2.25-1.946 2.25-3.313 0-1.205-.394-3.03-2.219-3.03H.075zm41.156 0v2.25H41.2c-.164-.316-.464-.75-1.156-.75-.894 0-1.688.819-1.688 2.438 0 1.303.524 2.53 1.719 2.53.436 0 .904-.183 1.156-.718h.032v.594h1.03v-6.344h-1.062zm2.125 0v6.344h1.063v-2.719c0-.717.381-1.062.844-1.062.688 0 .687.565.687.906v2.875h1.063v-3.25c0-1.034-.595-1.594-1.375-1.594-.59 0-1.078.345-1.22.75v-2.25h-1.062zm18.344 0v6.344h1.063v-1.5l.437-.531.969 2.03h1.281l-1.469-2.874 1.438-1.844h-1.313l-1.343 1.813v-3.438H61.7zm-56.156.031v1.157h1.062V34.61H5.544zm46.937 0v1.157h1.063V34.61H52.48zm2.344.344v1.25h-.562v.906h.562v2.844c0 .605.171 1 1.094 1h.125c.162 0 .325.009.5 0v-.969c-.083.012-.144.032-.219.032-.422 0-.438-.1-.437-.375V37.11h.656v-.906h-.656v-1.25h-1.063zm-53.656.719h1.094c.484 0 1.25.166 1.25 2.031 0 1.043-.297 2.125-1.22 2.125H1.17v-4.156zm8.125.406c-1.75 0-1.906 1.818-1.906 2.375 0 1.928.87 2.594 2 2.594.683 0 1.472-.364 1.75-1.5h-1.094c-.085.341-.363.5-.656.5-.852 0-.907-.81-.938-1.156h2.719v-.22c0-2.16-1.085-2.593-1.875-2.593zm12.625 0c-1.77 0-1.938 1.818-1.938 2.375 0 1.928.858 2.594 2 2.594.691 0 1.5-.364 1.782-1.5h-1.094c-.085.341-.391.5-.688.5-.86 0-.907-.81-.937-1.156h2.781v-.22c0-2.16-1.106-2.593-1.906-2.593zm4.344 0c-1.265 0-1.626.908-1.625 1.594 0 1.747 2.5 1.164 2.5 1.937 0 .182-.137.5-.688.5-.671 0-.875-.28-.875-.687h-1.094c.032 1.26 1.012 1.625 1.938 1.625.64 0 1.781-.248 1.781-1.625 0-1.72-2.531-1.198-2.531-1.938 0-.207.074-.437.656-.437.582 0 .673.285.719.594h1.031c-.084-1.335-1.018-1.563-1.812-1.563zm9.843 0c-.778 0-1.074.525-1.218.813h-.032v-.688h-1.031v4.719h1.094v-2.719c0-.717.36-1.062.844-1.062.667 0 .687.565.687.906v2.875h1.063v-3.25c0-1.034-.608-1.594-1.407-1.594zm13.657 0c-1.778 0-1.97 1.818-1.97 2.375 0 1.928.893 2.594 2.032 2.594.685 0 1.485-.364 1.781-1.5h-1.093c-.093.341-.398.5-.688.5-.865 0-.909-.81-.937-1.156h2.75v-.22c0-2.16-1.08-2.593-1.875-2.593zm9.156 0c-1.255 0-1.657.908-1.656 1.594 0 1.747 2.53 1.164 2.53 1.937 0 .182-.127.5-.687.5-.671 0-.906-.28-.906-.687h-1.094c.029 1.26 1.04 1.625 1.969 1.625.646 0 1.781-.248 1.781-1.625 0-1.72-2.53-1.198-2.531-1.938 0-.207.075-.437.656-.437.591 0 .673.285.719.594h1.031c-.081-1.335-1.007-1.563-1.812-1.563zm9.062 0c-.825 0-1.691.211-1.812 1.656H67.2c.031-.285.122-.656.656-.656.268 0 .688.014.688.531 0 .272-.202.348-.375.375l-.938.188c-.672.109-1.187.589-1.187 1.5 0 .982.616 1.375 1.219 1.375.677 0 1.036-.368 1.28-.656 0 0 .193.625.876.625.341 0 .562-.094.562-.094v-.844c-.355 0-.406-.23-.406-.375v-2.25c0-1.152-1.015-1.375-1.594-1.375zm4.188 0c-1.264 0-1.625.908-1.625 1.594 0 1.747 2.5 1.164 2.5 1.937 0 .182-.143.5-.688.5-.676 0-.875-.28-.875-.687h-1.093c.03 1.26 1.008 1.625 1.937 1.625.632 0 1.781-.248 1.781-1.625 0-1.72-2.53-1.198-2.531-1.938 0-.207.08-.437.656-.437.586 0 .673.285.719.594h1.031c-.086-1.335-1.013-1.563-1.812-1.563zm4.344 0c-1.264 0-1.626.908-1.625 1.594 0 1.747 2.5 1.164 2.5 1.937 0 .182-.138.5-.688.5-.677 0-.875-.28-.875-.687h-1.094c.028 1.26 1.008 1.625 1.938 1.625.635 0 1.781-.248 1.781-1.625 0-1.72-2.531-1.198-2.531-1.938 0-.207.072-.437.656-.437.582 0 .673.285.719.594h1.031c-.081-1.335-1.016-1.563-1.812-1.563zm4.437 0c-1.769 0-1.937 1.818-1.937 2.375 0 1.928.89 2.594 2.03 2.594.693 0 1.504-.364 1.782-1.5h-1.094c-.08.341-.39.5-.687.5-.862 0-.938-.81-.969-1.156h2.781v-.22c0-2.16-1.109-2.593-1.906-2.593zm-51.844.125v3.094c0 1.201.58 1.75 1.375 1.75.563 0 .973-.301 1.219-.813v.688h1.031v-4.719H31.67v2.719c0 .837-.459 1.062-.813 1.062-.322 0-.687-.113-.687-.843v-2.938h-1.063zm-23.562.063v4.656h1.062v-4.656H5.544zm46.937 0v4.656h1.063v-4.656H52.48zm-43.187.843c.34 0 .751.224.812 1H8.481c.06-.632.317-1 .813-1zm12.719 0c.343 0 .75.224.812 1h-1.656c.06-.632.34-1 .844-1zm27.718 0c.334 0 .746.224.813 1h-1.656c.057-.632.328-1 .843-1zm31.219 0c.344 0 .754.224.813 1h-1.657c.06-.632.344-1 .844-1zm-40.594.063c.738 0 .907.746.907 1.5 0 .694-.254 1.375-.938 1.375-.678 0-.875-.88-.875-1.438 0-.737.243-1.437.906-1.437zm28.188 1.469v.562a.95.95 0 0 1-.938.969c-.207 0-.5-.156-.5-.594 0-.512.329-.609.719-.687.441-.077.611-.15.719-.25zm15.125.968v1.313h1.156V39.61h-1.156z" fill="#FFF" fill-rule="nonzero"/></svg>