<svg width="304" height="317" viewBox="0 0 304 317" xmlns="http://www.w3.org/2000/svg"><title>logo--a1</title><g fill="none" fill-rule="evenodd"><path d="M271 0h33v202h-41V70h-51V40c32.585 0 59-17.909 59-40zM.604 304.776L90.01 46.014l26.042-13.726 58.917 13.726 71.62 242.294-49.378 8.051-17.897-4.51-13.051-43.655-61.657 4.165-16.628 56.215-67.478 8.295L.604 304.776zM118.54 200.084h34.399l-17.2-62.293-17.199 62.293z" fill="#FFF"/><path fill="#C1C1C1" opacity=".546" d="M179.314 291.85l-13.042-43.626 16.836-1.254 14.279 49.404zM172.169 200.074h-19.245l-17.252-62.193 8.17-31.671zM115.839 32.4L90.01 46.014.604 304.776l19.487 11.844.632.2z"/></g></svg>