<svg width="652" height="220" viewBox="0 0 652 220" xmlns="http://www.w3.org/2000/svg" xmlns:xlink="http://www.w3.org/1999/xlink"><title>logo--otto</title><defs><path id="a" d="M0 219.731V0h651.188v219.731"/></defs><g transform="matrix(1 0 0 -1 0 219.9)" fill="none" fill-rule="evenodd"><mask id="b" fill="#fff"><use xlink:href="#a"/></mask><path d="M589.639 124.046l-.594-7.089c-4.135-50.797-20.671-66.452-41.05-66.452-18.315 0-31.313 12.404-28.653 45.481l.592 7.388c4.137 50.505 20.672 66.453 41.051 66.453 18.02 0 31.311-12.703 28.654-45.78m-457.795 0l-.594-7.09c-4.13-50.797-20.672-66.452-41.051-66.452-18.314 0-31.305 12.404-28.648 45.481l.587 7.388c4.138 50.505 20.678 66.453 41.058 66.453 18.014 0 31.305-12.703 28.648-45.78m435.05 95.693c-32.447 0-58.839-10.002-77.486-30.709 2.656 7.189 4.056 15.954 4.238 26.279H379.937c-24.808 0-38.986-10.926-48.732-38.986l5.023 38.986H221.334c-21.034 0-35.475-10.058-40.693-29.754-14.237 22.818-39.536 34.184-71.541 34.184-60.839 0-100.417-35.149-107.506-110.164l-.887-9.452C-5.495 33.076 29.654 0 84.29 0c60.844 0 100.424 35.441 107.511 110.463l.887 9.447c1.598 17.204.43 32.154-3.09 44.895h51.523L226.357 38.392c-2.957-25.102 10.633-36.62 33.37-36.62 13.884 0 18.608.886 23.924 1.77l18.314 161.263h59.958l-14.77-126.413c-2.952-25.102 10.633-36.62 33.377-36.62 13.878 0 18.608.886 23.924 1.77l18.307 161.263H452.3c10.219 0 18.471 2.375 24.841 7.07-9.3-16.386-15.37-37.08-17.754-62.299l-.885-9.452C452.3 33.076 487.445 0 542.084 0 602.93 0 642.5 35.441 649.59 110.463l.886 9.447c6.204 66.752-28.94 99.83-83.583 99.83" mask="url(#b)" fill-rule="nonzero" fill="#FFF"/></g></svg>