<svg xmlns="http://www.w3.org/2000/svg" width="306" height="306" viewBox="0 0 306 306"><path fill="#3F4349" d="M122.808 13.706v262.262c0 3.408 14.854 8.419 17.079 9.36.891.375 18.558 6.861 18.558 5.726V96.785 28.791c0-3.408-14.854-8.417-17.077-9.357-.891-.378-18.56-6.865-18.56-5.728z"/><path fill="#3F4349" d="M19.636 170.805H302.604c.955 0-6.109-17.709-6.528-18.612-1.112-2.391-6.515-16.926-10.019-16.926H3.089c-.955 0 6.109 17.71 6.53 18.612 1.113 2.391 6.515 16.926 10.017 16.926zM168.232 186.977c.734 34.391 5.496 68.631 5.615 103.033.006 1.84 18.277-.97 19.355-1.144 1.763-.286 18.64-2.217 18.752-5.027.771-19.409 1.439-38.815 5.631-57.846 2.197-9.981 5.51-19.901 11.082-28.473 2.512-3.861 5.648-7.119 9.4-9.724a21.035 21.035 0 0 1 4.953-2.562c-7.317 1.268-14.64 2.535-21.959 3.801-.694.06-.758.076-.186.052 1.508.119 2.988.436 4.458.781 19.16 4.534 25.519 29.204 28.364 46.138 2.809 16.729 2.334 33.488 2.832 50.359.056 1.912 18.246-.963 19.357-1.143 1.579-.257 18.827-2.418 18.752-5.026-.5-16.894-.16-33.593-2.834-50.36-2.914-18.261-9.591-40.466-28.83-46.653-5.267-1.695-11.17-1.537-16.597-1.177-12.315.823-24.755 2.944-36.569 6.599-9.32 2.883-16.209 9.758-21.119 18.104-10.903 18.533-12.801 42.454-14.032 63.532-.384 6.583-.552 13.179-.813 19.768 12.702-2.059 25.406-4.113 38.108-6.171-.119-34.401-4.88-68.645-5.614-103.032-.04-1.891-18.257.965-19.357 1.145-1.597.257-18.803 2.393-18.749 5.026z"/></svg>