<svg width="710" height="492" viewBox="0 0 710 492" xmlns="http://www.w3.org/2000/svg"><title>logo--db</title><path d="M98.204 87.03h124.672c77.803 0 123.5 50.15 123.5 158.417 0 115.298-47.806 161.465-123.5 161.465H98.204V87.03zm283.09 0H520.73c58.352 0 87.645 35.152 87.645 75.693 0 53.197-31.168 71.241-55.305 76.397v1.406c36.089 4.687 68.663 30.23 68.663 79.21-.235 52.727-38.433 87.176-109.674 87.176H381.294V87.03zm-205.99 50.15h27.418c44.292 0 67.726 31.87 67.726 106.861 0 86.005-27.418 111.783-66.32 111.783h-28.824V137.18zm282.387-.469h29.527c30.231 0 42.651 16.873 42.651 36.558 0 23.903-12.889 40.542-43.12 40.542h-29.058v-77.1zm0 137.327h36.323c35.855 0 45.463 17.341 45.463 40.073 0 26.48-19.216 41.713-44.994 41.713h-36.792v-81.786zM73.129.79h563.602c40.073 0 72.647 32.34 72.647 72.412v345.895c0 40.073-32.574 72.647-72.647 72.647H73.129c-40.073 0-72.412-32.574-72.412-72.647V73.203C.717 33.13 33.057.791 73.129.791zm.938 49.446h561.96c12.421 0 22.498 10.077 22.498 22.498v346.831c0 12.42-10.077 22.497-22.497 22.497H74.067c-12.42 0-22.497-10.076-22.497-22.497V72.735c0-12.42 10.076-22.498 22.497-22.498z" fill="#FFF" fill-rule="evenodd"/></svg>