<svg width="197" height="32" viewBox="0 0 197 32" xmlns="http://www.w3.org/2000/svg"><title>logo--siemens</title><g fill="#FFF" fill-rule="evenodd"><path d="M194.121 1.347v5.829c-3.02-1.14-5.708-1.717-8.061-1.717-1.394 0-2.504.258-3.339.757-.834.503-1.26 1.123-1.26 1.854 0 .973.942 1.837 2.839 2.611l5.48 2.668c4.431 2.112 6.63 4.916 6.63 8.44 0 2.93-1.166 5.265-3.52 6.994-2.335 1.747-5.48 2.612-9.394 2.612-1.807 0-3.429-.078-4.87-.241-1.441-.155-3.097-.474-4.934-.93v-6.1c3.368 1.14 6.435 1.717 9.197 1.717 3.295 0 4.934-.955 4.934-2.882 0-.96-.67-1.734-2.035-2.34l-6.087-2.594c-2.245-1.016-3.914-2.246-5.007-3.704-1.075-1.471-1.622-3.158-1.622-5.085 0-2.697 1.136-4.87 3.381-6.522 2.263-1.639 5.266-2.46 9-2.46 1.213 0 2.611.107 4.16.305a55.43 55.43 0 0 1 4.508.788zM21.722 1.347v5.829c-3.02-1.14-5.704-1.717-8.057-1.717-1.398 0-2.504.258-3.338.757-.835.503-1.26 1.123-1.26 1.854 0 .973.954 1.837 2.851 2.611l5.48 2.668c4.415 2.112 6.617 4.916 6.617 8.44 0 2.93-1.17 5.265-3.506 6.994-2.353 1.747-5.48 2.612-9.408 2.612-1.807 0-3.433-.078-4.874-.241-1.441-.155-3.08-.474-4.93-.93v-6.1c3.381 1.14 6.449 1.717 9.193 1.717 3.295 0 4.934-.955 4.934-2.882 0-.96-.666-1.734-2.017-2.34L7.32 18.025c-2.263-1.016-3.932-2.246-5.008-3.704C1.22 12.85.687 11.163.687 9.236c0-2.697 1.127-4.87 3.386-6.522C6.317 1.076 9.324.255 13.058.255c1.226 0 2.607.107 4.173.305 1.549.211 3.05.47 4.491.788zM28.003.8h8.926v30.048h-8.926zM65.687.8v5.554H52.424v6.663h11.503v5.008H52.424v6.994h13.534v5.83H43.834V.8zM107.358.8v30.048h-8.333V11.03l-8.646 20.094h-5.145L76.919 11.03v19.818h-6.027V.8h10.896l7.438 18.395L97.008.8zM136.103.8v5.554h-13.19v6.663h11.503v5.008h-11.503v6.994h13.461v5.83H114.25V.8zM167.424.8v30.048h-9.468l-10.625-19.272v19.272h-6.023V.8h9.744l10.35 18.941V.801z"/></g></svg>