<svg width="852" height="147" viewBox="0 0 852 147" xmlns="http://www.w3.org/2000/svg"><title>logo--lufthansa</title><g fill-rule="nonzero" fill="#FFF"><path d="M145.997 73.709c0 40.267-32.462 72.551-72.73 72.551-40.089 0-72.55-32.284-72.55-72.374C.717 32.91 33.178.803 74.51.803c39.202 0 71.487 32.994 71.487 72.906zm-137.83 0c0 36.01 29.091 64.924 65.1 64.924 35.833 0 65.102-28.737 65.102-64.747 0-36.719-28.737-65.456-65.633-65.456-35.3 0-64.57 29.447-64.57 65.279zm49.136-3.016l-.887 1.774c-3.193-.71-9.401-3.015-15.787-5.854l-.887 1.597 2.66 1.42c9.225 4.789 12.418 5.853 17.562 5.853 10.82 0 18.98-6.031 22.883-16.852 6.563-1.42 15.078-1.951 25.366-1.951 8.692 0 16.142.355 25.899 1.596l-2.484 3.016c-4.434-.532-12.772-1.065-18.625-1.065-7.273 0-11.53 0-14.014.178l-1.064 2.66c5.853-.354 7.982-.354 12.594-.354 7.983 0 14.191.355 19.335.71l-2.483 3.37c-9.224-.355-13.304-.532-20.222-.532-3.725 0-6.564.177-10.998.354l-1.242 2.661c3.903-.355 9.402-.532 14.9-.532 5.5 0 11.886.177 15.61.355l-2.483 3.193c-2.66-.178-7.627-.178-11.53-.178-6.209 0-14.19.355-18.093.887l-1.242 2.306c7.45-.71 12.062-1.064 20.222-1.064 3.193 0 5.144 0 8.87.355l-2.839 3.37c-4.967-.355-6.563-.355-8.514-.355-13.66 0-22.706 1.952-31.753 7.096 8.337 8.337 21.996 14.014 34.413 14.014 1.065 0 1.597 0 4.258-.178l-5.854 6.031c-32.817-8.692-38.67-10.998-68.826-28.914C30.163 68.92 20.406 64.307 12.6 62.001l1.065-3.725c1.774.355 5.854 1.42 9.579 2.838l1.774-4.08 32.284 13.66zM779.269 103.155c0-10.466 6.74-17.916 20.044-21.641 2.129-.532 8.87-2.129 20.4-4.08 4.79-1.064 6.74-2.483 6.74-6.031 0-3.903-4.08-6.386-10.11-6.386-7.274 0-11.886 3.548-11.886 9.579h-20.754c0-15.788 12.417-25.19 33.172-25.19 21.64 0 32.107 9.048 32.107 27.319v35.654c0 6.031 0 6.031 2.128 9.757h-21.286l-1.242-5.854c-8.337 6.74-13.481 8.692-22.528 8.692-15.61 0-26.785-9.224-26.785-21.819m41.685-12.594c-2.483.354-5.321 1.064-8.337 1.774-7.45 1.95-10.998 4.966-10.998 9.401 0 4.612 3.37 7.096 9.224 7.096 11.176 0 16.32-4.967 16.32-15.256v-4.79c-2.838.888-3.903.888-6.209 1.775m-114.237 8.337h22.35v.887c0 5.854 4.79 9.401 12.418 9.401 6.563 0 10.643-2.483 10.643-6.386 0-4.08-3.725-6.563-12.594-7.982l-7.273-1.242c-16.497-2.838-23.593-8.87-23.593-19.867 0-15.255 12.595-24.302 33.35-24.302 14.545 0 23.592 3.902 28.204 12.417 1.951 3.37 2.306 4.612 2.838 12.24h-21.287c-.532-6.564-3.37-9.047-10.288-9.047-5.676 0-9.224 2.129-9.224 5.854 0 3.37 3.37 5.321 10.998 6.563l7.805 1.42c16.497 2.837 24.125 9.933 24.125 21.995 0 14.723-12.418 24.125-32.285 24.125-23.415 0-36.187-9.224-36.187-26.076m-149.715 4.257c0-10.466 6.919-17.916 20.223-21.641 2.128-.532 8.869-1.951 20.222-4.08 4.967-1.064 6.918-2.483 6.918-6.031 0-3.903-4.08-6.386-10.289-6.386-7.273 0-11.707 3.37-11.885 9.579h-20.754c0-15.788 12.417-25.19 32.994-25.19 21.641 0 32.462 9.048 32.462 27.319v35.654c0 6.031 0 6.031 1.774 9.757h-21.11l-1.24-5.854c-7.274 6.386-13.482 8.692-22.53 8.692-15.432 0-26.785-9.224-26.785-21.819m41.864-12.594c-2.838.532-5.322 1.241-8.337 1.774-7.45 1.95-10.998 4.966-10.998 9.401 0 4.612 3.547 7.096 9.224 7.096 10.82 0 16.142-4.967 16.142-15.256v-4.79c-3.016.888-3.903.888-6.031 1.775m-282.933 22.35c-3.015-5.144-3.547-7.805-3.547-19.335V52.422h22.883V92.69c0 10.289 2.838 14.369 10.11 14.369 7.45 0 11.353-4.79 11.353-14.369V52.422h22.706v69.714h-20.754l-.71-6.919c-5.676 6.032-12.062 8.692-20.045 8.692-9.756 0-17.916-3.902-21.996-10.998m362.934 9.225V82.578c0-10.288-3.015-14.545-10.11-14.545-7.451 0-11.176 4.789-11.176 14.545v39.558h-22.706V52.422h20.755l.71 7.805c5.32-6.918 11.707-9.933 20.221-9.933 9.757 0 17.562 4.257 21.642 11.53 3.015 5.322 3.37 8.337 3.37 19.867v40.445h-22.706m-149.714 0V82.578c0-10.11-3.193-14.545-10.111-14.545-7.45 0-11.176 4.789-11.176 14.545v39.558h-22.883V25.105h22.883v35.122c4.08-6.918 10.111-9.933 18.803-9.933 9.58 0 17.384 4.08 21.641 11.53 3.016 5.322 3.37 8.16 3.37 19.867v40.445h-22.527m-66.166 0c-13.481 0-19.69-6.386-19.69-20.4V67.678h-9.579V52.422h9.58V30.426h22.705v21.996h12.95v15.256h-12.95V95.35c.177 10.289.887 10.82 9.579 10.82h4.434v15.966h-17.029m-69.003 0V67.678h-9.934V52.422h9.934v-2.128c0-18.448 6.918-25.19 24.656-25.19h12.418v15.433h-3.726c-8.514 0-10.643 1.952-10.643 9.757v2.128h13.482v15.256h-13.482v54.458h-22.705m-151.134 0V25.105h24.125v77.873h40.976v19.158H242.85"/></g></svg>