<svg width="302" height="271" viewBox="0 0 302 271" xmlns="http://www.w3.org/2000/svg"><title>logo</title><g fill="none" fill-rule="evenodd"><path d="M49.827 0h241.75c5.522 0 10 4.477 10 10a10 10 0 0 1-.124 1.567l-8.597 54.182A10 10 0 0 1 283.01 74H105.546l-29.92 188.567A10 10 0 0 1 65.75 271H10c-5.523 0-10-4.477-10-10a10 10 0 0 1 .124-1.567l39.826-251A10 10 0 0 1 49.827 0z" fill="#FC4E4E"/><path d="M192.554 95.599l16.36 20.203 2.618-16.5A10 10 0 0 1 221.387 91h55.75c5.522 0 10 4.477 10 10a10 10 0 0 1-.124 1.567l-25.408 160.131A10 10 0 0 1 251.75 271H196c-5.523 0-10-4.477-10-10a10 10 0 0 1 .124-1.567l11.196-70.563-14.164-17.878-14.551 91.706A10 10 0 0 1 158.75 271H103c-5.523 0-10-4.477-10-10a10 10 0 0 1 .124-1.567l25.408-160.131A10 10 0 0 1 128.387 91h55.75a9.992 9.992 0 0 1 8.417 4.599z" fill="#4C546B"/></g></svg>