<svg width="145" height="144" viewBox="0 0 145 144" xmlns="http://www.w3.org/2000/svg" xmlns:xlink="http://www.w3.org/1999/xlink"><title>Group 3</title><defs><path id="a" d="M144.004 143.94H0V0h144.004z"/></defs><g fill="none" fill-rule="evenodd"><mask id="b" fill="#fff"><use xlink:href="#a"/></mask><path d="M122.708 122.707h-21.344v-33.42c0-7.969-.146-18.22-11.099-18.22-11.113 0-12.819 8.681-12.819 17.644v33.996h-21.34V53.985h20.485v9.39h.286c2.852-5.402 9.819-11.098 20.21-11.098 21.628 0 25.621 14.234 25.621 32.736v37.694zM32.034 44.591c-6.846 0-12.386-5.549-12.386-12.386 0-6.831 5.54-12.38 12.386-12.38 6.829 0 12.378 5.549 12.378 12.38 0 6.837-5.549 12.386-12.378 12.386zM21.35 122.707h21.36V53.985H21.35v68.722zM133.345 0H10.629C4.765 0 0 4.648 0 10.376V133.61C0 139.345 4.765 144 10.629 144h122.716c5.874 0 10.659-4.655 10.659-10.39V10.376C144.004 4.648 139.219 0 133.345 0z" fill="#FFFFFE" mask="url(#b)"/></g></svg>