<svg width="33" height="39" viewBox="0 0 33 39" xmlns="http://www.w3.org/2000/svg"><title>Group</title><g fill-rule="nonzero" fill="#FFF"><path d="M3.188 7.531c-.332 0-.61.117-.75.344-.146.235-.123.537.03.844l3.72 6.437c.006.013.006.02 0 .031L.343 25.5c-.153.304-.145.609 0 .844.14.226.387.375.719.375h5.5c.822 0 1.218-.555 1.5-1.063L14 15.156c-.023-.036-3.781-6.594-3.781-6.594-.274-.487-.688-1.03-1.531-1.03h-5.5zM26.293 0c-.82 0-1.177.517-1.472 1.048L12.582 22.75l7.815 14.337c.273.488.694 1.048 1.536 1.048h5.494c.331 0 .59-.125.73-.351.146-.235.143-.545-.011-.85l-7.754-14.166a.032.032 0 0 1 0-.037L32.57 1.2c.152-.304.156-.614.01-.849-.14-.226-.4-.351-.73-.351h-5.557z"/></g></svg>