<?xml version="1.0" encoding="UTF-8" standalone="no"?>
<!-- Created with Inkscape (http://www.inkscape.org/) -->

<svg
   xmlns:dc="http://purl.org/dc/elements/1.1/"
   xmlns:cc="http://creativecommons.org/ns#"
   xmlns:rdf="http://www.w3.org/1999/02/22-rdf-syntax-ns#"
   xmlns:svg="http://www.w3.org/2000/svg"
   xmlns="http://www.w3.org/2000/svg"
   version="1.1"
   width="519.2901"
   height="146.68053"
   id="svg2"
   xml:space="preserve"><defs
     id="defs6" /><g
     transform="matrix(1.25,0,0,-1.25,65.198387,362.58121)"
     id="g10"><g
       transform="matrix(4.0960457,0,0,4.0960457,114.40093,190.78948)"
       id="g2610"><path
         d="m 0,0 0.464,0.024 0.487,0.08 0.477,0.122 0.233,0.082 0.214,0.092 0.204,0.126 0.19,0.135 0.169,0.165 0.146,0.177 0.105,0.217 0.083,0.234 0.053,0.252 0,0.3 L 2.789,2.29 2.689,2.535 2.555,2.771 2.368,2.983 2.132,3.177 1.849,3.354 1.539,3.5 1.198,3.658 0.422,3.924 -0.432,4.185 -1.359,4.441 -2.31,4.74 l -0.957,0.353 -0.459,0.205 -0.462,0.218 -0.435,0.241 -0.432,0.274 -0.396,0.316 -0.38,0.324 -0.354,0.38 -0.324,0.41 -0.286,0.451 -0.245,0.484 -0.206,0.542 -0.147,0.588 -0.11,0.637 -0.058,0.697 0,0.418 0.017,0.395 0.041,0.38 0.069,0.383 0.08,0.366 0.096,0.354 0.12,0.334 0.138,0.331 0.148,0.323 0.174,0.303 0.181,0.301 0.204,0.27 0.216,0.272 0.231,0.26 0.247,0.225 0.255,0.237 0.276,0.218 0.271,0.2 0.597,0.37 0.625,0.312 0.654,0.269 0.691,0.206 0.708,0.161 0.723,0.11 0.723,0.054 0.578,0 L 1.075,17.9 1.615,17.844 2.153,17.777 2.675,17.668 3.182,17.531 3.67,17.367 4.148,17.179 4.609,16.946 5.057,16.688 5.509,16.401 5.928,16.077 6.35,15.71 6.755,15.318 7.151,14.897 7.528,14.417 4.271,11.754 3.77,12.26 3.306,12.695 2.842,13.06 2.607,13.223 2.378,13.356 2.132,13.481 1.875,13.592 1.607,13.671 1.323,13.74 1.021,13.79 0.694,13.821 0.354,13.835 -0.026,13.821 -0.379,13.79 -0.747,13.701 -1.115,13.55 -1.452,13.348 -1.615,13.239 -1.763,13.104 -1.89,12.965 -1.999,12.802 -2.095,12.638 -2.163,12.463 -2.188,12.26 l -0.014,-0.207 0.039,-0.271 0.096,-0.256 0.151,-0.248 0.191,-0.201 0.229,-0.194 L -1.21,10.709 -0.896,10.56 -0.56,10.407 0.216,10.151 1.091,9.906 2.013,9.659 2.978,9.372 3.928,9.038 4.408,8.849 4.869,8.628 5.313,8.384 5.751,8.123 6.159,7.831 6.539,7.484 6.895,7.117 7.219,6.711 7.504,6.262 7.751,5.774 7.95,5.229 8.119,4.63 8.209,3.977 8.263,3.282 8.279,2.848 8.263,2.439 8.228,2.038 8.172,1.64 8.09,1.262 8.01,0.89 7.898,0.542 7.763,0.202 7.628,-0.141 7.465,-0.467 7.288,-0.765 7.097,-1.065 6.895,-1.347 6.676,-1.621 6.446,-1.878 6.202,-2.128 5.941,-2.359 5.669,-2.587 5.383,-2.786 5.099,-2.98 4.787,-3.159 4.475,-3.318 4.158,-3.486 3.818,-3.622 3.139,-3.853 2.42,-4.023 1.689,-4.153 0.924,-4.203 0.216,-4.216 l -0.681,0.024 -0.678,0.039 -0.663,0.067 -0.655,0.111 -0.637,0.149 -0.628,0.181 -0.595,0.228 -0.598,0.258 -0.558,0.301 -0.557,0.35 -0.532,0.409 -0.501,0.452 -0.477,0.489 -0.459,0.558 -0.44,0.608 3.494,2.747 0.52,-0.691 0.514,-0.584 0.257,-0.26 0.26,-0.232 0.257,-0.205 0.287,-0.175 0.289,-0.162 0.31,-0.138 L -1.946,0.202 -1.603,0.12 -1.237,0.051 -0.855,0.008 -0.432,0 0,0 z"
         id="path2612"
         style="fill:#004d9f;fill-opacity:1;fill-rule:nonzero;stroke:none" /></g><g
       transform="matrix(4.0960457,0,0,4.0960457,291.19441,179.18743)"
       id="g2614"><path
         d="M 0,0 0.42,0 0.828,0.03 0.977,0.056 1.105,0.112 1.183,0.178 1.236,0.271 1.264,0.38 1.279,0.516 1.264,0.653 1.236,0.776 1.167,0.872 1.089,0.938 0.964,0.978 0.815,1.021 0.367,1.031 0,1.031 0,0 z m 0,1.876 0.339,0 0.34,0.027 L 0.801,1.93 0.897,1.985 0.964,2.043 1.02,2.121 1.049,2.216 1.06,2.325 1.049,2.447 1.02,2.545 0.977,2.626 0.91,2.678 0.815,2.718 0.679,2.747 0.339,2.76 0,2.76 0,1.876 z m -1.168,1.767 1.413,0 L 0.792,3.627 1.197,3.593 1.51,3.505 1.77,3.375 1.862,3.303 1.959,3.213 2.106,2.989 2.201,2.747 2.23,2.477 2.216,2.309 2.189,2.145 2.132,2.011 2.068,1.892 1.972,1.796 1.862,1.701 1.716,1.622 1.565,1.552 1.779,1.486 1.972,1.398 2.132,1.292 2.257,1.169 2.368,1.021 2.435,0.845 2.484,0.665 2.503,0.447 2.478,0.221 2.41,-0.013 2.31,-0.218 2.16,-0.395 2.004,-0.543 1.779,-0.666 1.551,-0.762 1.293,-0.826 0.828,-0.868 0.179,-0.881 l -1.347,0 0,4.524 z"
         id="path2616"
         style="fill:#004d9f;fill-opacity:1;fill-rule:nonzero;stroke:none" /></g><g
       transform="matrix(4.0960457,0,0,4.0960457,313.24506,182.9435)"
       id="g2618"><path
         d="M 0,0 -0.42,1.53 -0.855,0 0,0 z m -1.003,2.726 1.155,0 1.692,-4.525 -1.243,0 -0.299,0.896 -1.457,0 -0.3,-0.896 -1.238,0 1.69,4.525 z"
         id="path2620"
         style="fill:#004d9f;fill-opacity:1;fill-rule:nonzero;stroke:none" /></g><g
       transform="matrix(4.0960457,0,0,4.0960457,323.43971,194.10895)"
       id="g2622"><path
         d="m 0,0 1.238,0 1.67,-2.797 0,2.797 1.155,0 0,-4.524 -1.166,0 -1.74,2.836 0,-2.836 L 0,-4.524 0,0 z"
         id="path2624"
         style="fill:#004d9f;fill-opacity:1;fill-rule:nonzero;stroke:none" /></g><g
       transform="matrix(4.0960457,0,0,4.0960457,345.04881,194.10895)"
       id="g2626"><path
         d="m 0,0 1.196,0 0,-1.847 L 2.743,0 4.148,0 2.255,-2.126 l 1.999,-2.398 -1.511,0 -1.547,2.077 0,-2.077 L 0,-4.524 0,0 z"
         id="path2628"
         style="fill:#004d9f;fill-opacity:1;fill-rule:nonzero;stroke:none" /></g><g
       transform="matrix(4.0960457,0,0,4.0960457,5.2076813,194.83924)"
       id="g2630"><path
         d="m 0,0 -8.459,0 0,3.616 7.493,0 0,4.719 -7.493,0 0,3.653 8.417,0 0,4.706 -11.091,0 -0.271,-0.014 -0.261,-0.042 -0.257,-0.067 -0.247,-0.083 -0.242,-0.122 -0.216,-0.131 -0.206,-0.153 -0.189,-0.179 -0.179,-0.19 -0.148,-0.203 -0.132,-0.22 -0.115,-0.224 -0.094,-0.249 -0.069,-0.255 -0.039,-0.273 -0.012,-0.276 0,-16.038 0.012,-0.279 0.039,-0.249 0.069,-0.261 0.094,-0.244 0.115,-0.248 0.132,-0.215 0.148,-0.205 0.179,-0.191 0.189,-0.177 0.206,-0.149 0.216,-0.133 0.242,-0.111 0.247,-0.096 0.257,-0.05 0.261,-0.043 0.271,-0.013 0.34,0.013 L 0,-4.676 0,0 z"
         id="path2632"
         style="fill:#004d9f;fill-opacity:1;fill-rule:nonzero;stroke:none" /></g><g
       transform="matrix(4.0960457,0,0,4.0960457,146.0797,263.16009)"
       id="g2634"><path
         d="m 0,0 0,-4.8 3.93,0 0,-16.556 6.037,0 -0.016,16.556 4.199,0 0,4.8 L 0,0 z"
         id="path2636"
         style="fill:#004d9f;fill-opacity:1;fill-rule:nonzero;stroke:none" /></g><g
       transform="matrix(4.0960457,0,0,4.0960457,324.05822,289.26497)"
       id="g2638"><path
         d="M 0,0 0.27,-0.012 0.543,-0.048 0.801,-0.104 1.043,-0.2 1.276,-0.312 1.508,-0.46 1.727,-0.622 1.929,-0.81 2.12,-1.029 2.276,-1.251 2.415,-1.479 2.536,-1.725 2.621,-1.984 2.689,-2.244 2.73,-2.512 2.746,-2.785 2.73,-3.067 2.689,-3.341 2.621,-3.614 2.536,-3.854 2.431,-4.101 2.276,-4.334 2.12,-4.552 1.929,-4.765 1.727,-4.959 1.508,-5.122 1.276,-5.272 1.043,-5.378 0.801,-5.476 0.543,-5.545 0.27,-5.586 l -0.27,0 -0.276,0 -0.267,0.041 -0.259,0.069 -0.249,0.098 -0.24,0.106 -0.222,0.15 -0.215,0.163 -0.207,0.194 -0.191,0.213 -0.158,0.218 -0.135,0.233 -0.114,0.247 -0.097,0.24 -0.062,0.273 -0.027,0.274 -0.015,0.282 0.015,0.273 0.027,0.268 0.062,0.26 0.088,0.259 0.123,0.229 0.135,0.235 0.158,0.232 0.182,0.201 0.216,0.191 0.215,0.177 0.222,0.135 0.24,0.125 0.249,0.081 0.259,0.071 0.267,0.036 L 0,0 z"
         id="path2640"
         style="fill:#e60005;fill-opacity:1;fill-rule:nonzero;stroke:none" /></g><g
       transform="matrix(4.0960457,0,0,4.0960457,302.3758,202.18062)"
       id="g2642"><path
         d="m 0,0 0,0 -0.771,0 -0.34,0.014 -0.384,0.053 -0.379,0.085 -0.314,0.106 -0.271,0.119 -0.136,0.088 -0.298,0.205 -0.3,0.257 -0.122,0.134 -0.146,0.205 -0.138,0.247 -0.108,0.244 -0.099,0.228 0,0.043 -0.067,0.215 -0.025,0.451 -0.015,0.896 -0.01,0.805 6.89,0 6.906,0 0,0.947 -13.796,0 -0.015,6.526 0,0.099 0.04,0.501 0.039,0.283 0.067,0.193 0.03,0.066 0.12,0.286 0.124,0.218 0.203,0.284 0.165,0.204 0.067,0.053 0.328,0.276 0.205,0.124 0.216,0.094 0.175,0.08 0.422,0.135 0.462,0.081 0.204,0.03 2.037,0 3.89,0 3.999,0 2.407,0 0.268,-0.041 0.272,-0.07 0.327,-0.109 0.42,-0.176 0.141,-0.065 0.091,-0.058 0.257,-0.161 0.247,-0.166 0.068,-0.054 0.282,-0.271 0.114,-0.136 0.091,-0.135 0.099,-0.16 0.191,-0.396 0.041,-0.18 0.066,-0.42 0.029,-0.449 0,-0.193 0,-1.372 -6.796,0 -6.964,0 0,-0.392 0,-0.624 13.76,0 0,-3.294 L 14.253,2.599 14.224,2.391 14.171,2.203 14.074,1.919 13.939,1.582 13.872,1.455 13.773,1.303 13.651,1.13 13.472,0.927 13.272,0.718 13.11,0.587 12.955,0.479 12.919,0.465 12.756,0.37 12.402,0.203 12.075,0.097 11.941,0.059 11.694,0.014 11.381,0 9.221,0 5.795,0 2.318,0 0,0 z"
         id="path2644"
         style="fill:#e60005;fill-opacity:1;fill-rule:nonzero;stroke:none" /></g><g
       transform="matrix(4.0960457,0,0,4.0960457,264.23137,194.83924)"
       id="g2646"><path
         d="m 0,0 -8.47,0 0,3.603 7.494,0 0,4.716 -7.494,0 0,3.658 8.459,0 0,4.703 -11.115,0 -0.275,-0.012 -0.274,-0.041 -0.256,-0.056 -0.245,-0.095 -0.231,-0.11 -0.221,-0.131 -0.217,-0.167 -0.175,-0.165 -0.177,-0.19 -0.15,-0.203 -0.132,-0.229 -0.125,-0.234 -0.084,-0.244 -0.066,-0.26 -0.036,-0.254 -0.02,-0.276 0,-16.038 0.02,-0.279 0.036,-0.268 0.066,-0.255 0.084,-0.244 0.125,-0.235 0.132,-0.215 0.15,-0.218 0.177,-0.191 0.175,-0.164 0.217,-0.16 0.221,-0.122 0.231,-0.125 0.245,-0.082 0.256,-0.064 0.274,-0.042 0.275,-0.014 0.336,0.027 10.79,0 L 0,0 z"
         id="path2648"
         style="fill:#004d9f;fill-opacity:1;fill-rule:nonzero;stroke:none" /></g><g
       transform="matrix(4.0960457,0,0,4.0960457,33.659224,246.83653)"
       id="g2650"><path
         d="M 0,0 2.462,0 2.977,-0.021 3.496,-0.09 3.754,-0.15 3.999,-0.216 4.231,-0.313 4.458,-0.417 4.664,-0.557 4.856,-0.718 5.012,-0.893 5.151,-1.112 5.275,-1.359 5.359,-1.63 5.411,-1.915 5.427,-2.255 5.411,-2.639 5.348,-2.959 5.247,-3.248 5.127,-3.509 4.96,-3.722 4.772,-3.903 4.566,-4.059 4.325,-4.185 4.078,-4.284 3.82,-4.36 3.55,-4.414 3.261,-4.469 2.68,-4.51 2.109,-4.527 1.063,-4.51 0,-4.527 0,0 z m 5.941,-17.37 6.063,0 -4.47,9.627 0,-0.085 0.377,0.191 0.365,0.215 0.344,0.246 0.326,0.273 0.298,0.295 0.274,0.319 0.258,0.325 0.233,0.354 0.216,0.381 0.172,0.377 0.154,0.423 0.134,0.42 0.092,0.435 0.082,0.463 0.043,0.461 0.015,0.494 0,0.374 -0.028,0.398 -0.054,0.367 -0.058,0.37 -0.078,0.334 L 10.605,0.018 10.499,0.329 10.372,0.631 10.235,0.914 10.079,1.186 9.912,1.456 9.734,1.703 9.543,1.934 9.342,2.148 9.12,2.353 8.904,2.546 8.415,2.895 7.9,3.186 7.353,3.442 6.773,3.631 6.159,3.794 5.532,3.904 4.893,3.958 4.231,3.985 l -9.603,0 0,-21.368 5.372,0 0.015,8.315 2.392,0 3.534,-8.302 z"
         id="path2652"
         style="fill:#004d9f;fill-opacity:1;fill-rule:nonzero;stroke:none" /></g></g></svg>