<?xml version="1.0" encoding="utf-8"?>
<!-- Generator: Adobe Illustrator 16.0.0, SVG Export Plug-In . SVG Version: 6.00 Build 0)  -->
<!DOCTYPE svg PUBLIC "-//W3C//DTD SVG 1.1//EN" "http://www.w3.org/Graphics/SVG/1.1/DTD/svg11.dtd">
<svg version="1.1" id="Layer_1" xmlns="http://www.w3.org/2000/svg" xmlns:xlink="http://www.w3.org/1999/xlink" x="0px" y="0px"
	 width="300px" height="200px" viewBox="-8.268 -47.559 300 200" enable-background="new -8.268 -47.559 300 200"
	 xml:space="preserve">
<g id="OTTO">
	<path fill="#DA251D" d="M199.302,17.526l0.358-0.212c5.331-3.106,12.216-4.882,20.768-4.882c18.323,0,30.096,8.766,30.096,32.289
		c0,24.855-8.552,46.048-37.98,46.048c-24.433,0-30.873-15.092-30.873-29.293c0-9.052,0.989-17.885,3.405-25.077h-0.158
		l-8.462,0.004L170.9,89.327h-26.211l5.663-52.928l-12.769,0.004l-6.217,52.923h-26.322l6.219-52.928h-9.551
		c0.333,2.441,0.556,5.326,0.556,8.322c0,24.855-8.663,46.048-37.87,46.048c-24.542,0-30.873-15.092-30.873-29.293
		c0-28.517,8.883-49.044,38.646-49.044c9.895,0,18.055,2.953,23.215,8.762c2.692-4.912,7.865-7.325,13.251-7.325l41.272,0.005
		l-0.147,1.221c0,0,1.479-1.227,5.256-1.226l44.671,0.005l-0.334,3.107L199.302,17.526L199.302,17.526z M196.565,22.744
		c0.259-0.665,0.441-2.692,0.441-2.692l0.349-3.958h-42.338c-4.775,0-6.664,2.441-6.664,2.441l0.334-2.441h-40.05
		c-5.813,0-11.042,3.295-12.79,9.795c-4.619-7.962-12.855-11.238-23.676-11.238c-27.986,0-36.426,19.64-36.426,46.825
		c0,13.204,5.886,27.074,28.653,27.074c27.43,0,35.648-20.306,35.648-43.83c0-3.883-0.333-7.434-1-10.541h14.659l-6.219,52.926
		h21.877l6.108-52.926h17.325l-5.664,52.926h21.767l5.553-52.926l10.466,0c1.753,0,3.062-0.12,4.118-1.01
		c-0.441,0.554-1.854,3.943-2.039,4.491c-2.051,6.063-3.105,14.141-3.105,23.816c0,13.204,5.997,27.074,28.652,27.074
		c27.652,0,35.759-20.306,35.759-43.83c0-21.859-10.994-30.07-27.874-30.07c-9.683,0-16.724,2.291-21.702,5.893
		C198.487,20.717,197.137,21.737,196.565,22.744z M97.158,44.721c0,21.97-7.552,41.055-32.761,41.055
		c-20.434,0-25.765-12.539-25.765-24.3c0-25.521,7.774-44.051,33.539-44.051C87.608,17.425,97.158,24.97,97.158,44.721
		L97.158,44.721z M245.416,44.721c0,21.97-7.441,41.055-32.872,41.055c-20.323,0-25.765-12.539-25.765-24.3
		c0-25.521,7.995-44.051,33.649-44.051C235.532,17.425,245.416,24.97,245.416,44.721L245.416,44.721z M229.535,43.5
		c0-11.54-6.774-13.981-10.995-13.981c-9.994,0-16.103,8.211-16.103,29.181c0,9.766,3.776,14.426,10.994,14.426
		C225.537,73.126,229.535,64.139,229.535,43.5L229.535,43.5z M81.389,43.5c0-11.54-5.998-13.981-10.55-13.981
		c-8.663,0-16.437,6.769-16.437,29.181c0,10.542,3.776,14.426,10.995,14.426C77.391,73.126,81.389,62.917,81.389,43.5z M78.501,43.5
		c0,17.531-3.22,26.741-13.104,26.741c-5.331,0-8.107-3.106-8.107-11.541c0-20.193,6.441-26.296,13.549-26.296
		C74.17,32.404,78.501,34.291,78.501,43.5z M226.647,43.5c0,18.641-3.332,26.741-13.216,26.741c-5.33,0-8.107-3.772-8.107-11.541
		c0-18.862,4.998-26.296,13.216-26.296C221.65,32.404,226.647,34.291,226.647,43.5z M224.648,43.5c0-7.545-3.775-9.099-6.108-9.099
		c-6.996,0-11.216,6.88-11.216,24.299c0,6.437,2.109,9.544,6.107,9.544C221.872,68.245,224.648,60.699,224.648,43.5z M76.503,43.5
		c0-7.545-3.221-9.099-5.664-9.099c-6.108,0-11.55,5.66-11.55,24.299c0,6.991,2.11,9.544,6.108,9.544
		C73.726,68.245,76.503,59.701,76.503,43.5z M132.807,31.406l-5.997,52.926h-16.102l6.218-52.926h-18.88c0,0,0.041-1.11,0.153-2.22
		c0.776-6.879,5.44-10.315,10.438-10.316l37.718-0.003l-1.02,7.878c1.333-5.215,5.575-7.874,10.018-7.875l38.894-0.003l-0.111,1.776
		c-0.334,4.66-1.443,10.756-9.218,10.759l-13.021,0.004l-5.664,52.926h-15.881l5.664-52.926H132.807L132.807,31.406z"/>
</g>
</svg>
