<?xml version="1.0" encoding="utf-8"?>
<!-- Generator: Adobe Illustrator 16.0.0, SVG Export Plug-In . SVG Version: 6.00 Build 0)  -->
<!DOCTYPE svg PUBLIC "-//W3C//DTD SVG 1.1//EN" "http://www.w3.org/Graphics/SVG/1.1/DTD/svg11.dtd">
<svg version="1.1"
	 id="svg2" xmlns:dc="http://purl.org/dc/elements/1.1/" xmlns:cc="http://creativecommons.org/ns#" xmlns:rdf="http://www.w3.org/1999/02/22-rdf-syntax-ns#" xmlns:svg="http://www.w3.org/2000/svg"
	 xmlns="http://www.w3.org/2000/svg" xmlns:xlink="http://www.w3.org/1999/xlink" x="0px" y="0px" width="300px" height="200px"
	 viewBox="109.645 -26.66 300 200" enable-background="new 109.645 -26.66 300 200" xml:space="preserve">
<g id="g10" transform="matrix(1.25,0,0,-1.25,65.198387,362.58121)">
	<g id="g2610" transform="matrix(4.0960457,0,0,4.0960457,114.40093,190.78948)">
		<path id="path2612" fill="#004D9F" d="M5.315,6.611l0.218,0.011L5.763,6.66l0.225,0.057l0.11,0.039l0.101,0.043l0.096,0.059
			l0.089,0.064L6.464,7l0.069,0.083l0.049,0.102l0.039,0.11l0.025,0.119v0.141L6.629,7.69L6.582,7.805L6.519,7.916l-0.088,0.1
			L6.32,8.107L6.186,8.191L6.04,8.26L5.88,8.334L5.514,8.459L5.112,8.582L4.675,8.703L4.227,8.844L3.776,9.01L3.56,9.106
			L3.343,9.209L3.138,9.323L2.934,9.452L2.748,9.601L2.569,9.753L2.402,9.932l-0.153,0.193l-0.135,0.212l-0.115,0.228l-0.097,0.255
			l-0.069,0.277l-0.052,0.3l-0.027,0.328v0.197l0.008,0.186l0.019,0.179l0.033,0.18l0.038,0.172l0.045,0.167l0.057,0.157
			l0.065,0.156l0.07,0.152l0.082,0.143l0.085,0.142l0.096,0.127l0.102,0.128l0.109,0.122l0.116,0.106l0.12,0.112l0.13,0.103
			l0.128,0.094l0.281,0.174l0.294,0.147l0.308,0.127l0.325,0.097l0.333,0.076l0.34,0.052l0.341,0.025h0.272l0.27-0.006l0.254-0.026
			l0.253-0.032l0.246-0.051l0.239-0.064l0.23-0.077l0.225-0.089l0.217-0.11l0.211-0.121l0.213-0.135l0.197-0.153l0.199-0.173
			l0.191-0.185l0.187-0.198l0.177-0.226l-1.534-1.254l-0.236,0.238L6.872,12.59l-0.219,0.172l-0.111,0.077l-0.108,0.063L6.32,12.961
			l-0.121,0.052L6.072,13.05l-0.134,0.033l-0.142,0.023l-0.154,0.015l-0.16,0.007l-0.179-0.007l-0.166-0.015l-0.173-0.042
			L4.79,12.993l-0.159-0.095l-0.077-0.051l-0.07-0.064l-0.06-0.066l-0.051-0.077l-0.045-0.077l-0.032-0.082l-0.012-0.096
			l-0.007-0.097l0.018-0.128l0.045-0.121l0.071-0.117l0.09-0.095l0.108-0.091l0.135-0.082l0.148-0.07l0.158-0.072l0.365-0.121
			l0.412-0.115l0.434-0.116l0.454-0.135l0.448-0.157l0.226-0.089l0.217-0.104l0.209-0.115l0.206-0.123L8.216,10.3l0.179-0.164
			l0.168-0.173l0.152-0.191L8.85,9.561l0.116-0.23L9.06,9.074l0.08-0.282l0.042-0.307l0.025-0.327l0.008-0.204L9.207,7.76
			L9.191,7.571L9.164,7.383L9.126,7.205L9.088,7.03L9.035,6.866l-0.064-0.16L8.908,6.545L8.831,6.391l-0.083-0.14l-0.09-0.141
			L8.563,5.977L8.46,5.848L8.351,5.727L8.236,5.609L8.114,5.5L7.985,5.392L7.851,5.299L7.717,5.207L7.57,5.123L7.423,5.048
			L7.274,4.969l-0.16-0.064l-0.32-0.109l-0.339-0.08L6.111,4.655L5.75,4.631L5.417,4.625L5.096,4.637L4.777,4.655L4.465,4.687
			L4.156,4.739l-0.3,0.07L3.56,4.894L3.28,5.002L2.998,5.123L2.736,5.265L2.473,5.43L2.223,5.622L1.987,5.835l-0.225,0.23
			L1.546,6.328L1.339,6.615l1.646,1.294l0.245-0.325l0.242-0.275l0.121-0.122l0.122-0.109L3.836,6.98l0.135-0.082l0.136-0.076
			l0.146-0.065l0.146-0.05L4.56,6.667l0.172-0.032l0.18-0.02l0.199-0.004H5.315z"/>
	</g>
	<g id="g2614" transform="matrix(4.0960457,0,0,4.0960457,291.19441,179.18743)">
		<path id="path2616" fill="#004D9F" d="M-17.517,8.109h0.198l0.192,0.014l0.07,0.012l0.06,0.026l0.037,0.031l0.025,0.044
			l0.013,0.051l0.007,0.064l-0.007,0.065l-0.013,0.058l-0.032,0.045l-0.037,0.031l-0.059,0.019l-0.07,0.02l-0.211,0.005h-0.173
			V8.109z M-17.517,8.993h0.16l0.16,0.013l0.058,0.013l0.045,0.026l0.031,0.027l0.026,0.037l0.014,0.045l0.005,0.051l-0.005,0.057
			l-0.014,0.046l-0.02,0.038l-0.031,0.025l-0.045,0.019l-0.064,0.014l-0.16,0.006h-0.16V8.993z M-18.067,9.825h0.665l0.258-0.008
			l0.191-0.016l0.147-0.041l0.122-0.061l0.043-0.034l0.046-0.042l0.069-0.106l0.045-0.114l0.014-0.127l-0.006-0.079l-0.013-0.077
			l-0.027-0.063l-0.03-0.056l-0.045-0.045l-0.052-0.045l-0.069-0.037L-16.78,8.84l0.101-0.031l0.091-0.041l0.075-0.05l0.059-0.058
			l0.052-0.07l0.032-0.083l0.023-0.085l0.009-0.103l-0.012-0.106l-0.032-0.11l-0.047-0.097L-16.5,7.923l-0.074-0.07l-0.106-0.058
			l-0.107-0.045l-0.121-0.03l-0.219-0.02l-0.306-0.006h-0.634V9.825z"/>
	</g>
	<g id="g2618" transform="matrix(4.0960457,0,0,4.0960457,313.24506,182.9435)">
		<path id="path2620" fill="#004D9F" d="M-20.365,7.624l-0.198,0.721l-0.205-0.721H-20.365z M-20.837,8.908h0.544l0.797-2.131
			h-0.585l-0.141,0.422h-0.686l-0.141-0.422h-0.583L-20.837,8.908z"/>
	</g>
	<g id="g2622" transform="matrix(4.0960457,0,0,4.0960457,323.43971,194.10895)">
		<path id="path2624" fill="#004D9F" d="M-21.682,6.182h0.583l0.787-1.317v1.317h0.544V4.052h-0.549l-0.82,1.336V4.052h-0.545V6.182
			z"/>
	</g>
	<g id="g2626" transform="matrix(4.0960457,0,0,4.0960457,345.04881,194.10895)">
		<path id="path2628" fill="#004D9F" d="M-24.472,6.182h0.563v-0.87l0.729,0.87h0.662l-0.892-1.001l0.942-1.129h-0.712l-0.729,0.978
			V4.052h-0.563V6.182z"/>
	</g>
	<g id="g2630" transform="matrix(4.0960457,0,0,4.0960457,5.2076813,194.83924)">
		<path id="path2632" fill="#004D9F" d="M19.417,6.088h-3.984v1.703h3.529v2.223h-3.529v1.721h3.964v2.217h-5.224l-0.128-0.007
			l-0.123-0.02l-0.121-0.031l-0.116-0.039l-0.114-0.058l-0.102-0.062l-0.097-0.072l-0.089-0.084L13.2,13.489l-0.07-0.096
			l-0.062-0.104l-0.054-0.106l-0.044-0.117l-0.033-0.12l-0.018-0.129l-0.006-0.13V5.134l0.006-0.131l0.018-0.117l0.033-0.123
			l0.044-0.115l0.054-0.117L13.13,4.43l0.07-0.097l0.084-0.09l0.089-0.083l0.097-0.07l0.102-0.063l0.114-0.052l0.116-0.045
			l0.121-0.023l0.123-0.02l0.128-0.006l0.16,0.006h5.084V6.088z"/>
	</g>
	<g id="g2634" transform="matrix(4.0960457,0,0,4.0960457,146.0797,263.16009)">
		<path id="path2636" fill="#004D9F" d="M1.224-2.736v-2.261h1.851v-7.798h2.843L5.911-4.996h1.978v2.261H1.224z"/>
	</g>
	<g id="g2638" transform="matrix(4.0960457,0,0,4.0960457,324.05822,289.26497)">
		<path id="path2640" fill="#E60005" d="M-21.761-6.107l0.127-0.006l0.129-0.017l0.121-0.026l0.114-0.045l0.11-0.053l0.109-0.07
			l0.103-0.076l0.095-0.089l0.09-0.103l0.073-0.105l0.066-0.107l0.057-0.116l0.04-0.122l0.032-0.122l0.019-0.126l0.008-0.129
			l-0.008-0.133l-0.019-0.129l-0.032-0.129l-0.04-0.113l-0.049-0.116l-0.073-0.11l-0.073-0.103l-0.09-0.1l-0.095-0.091l-0.103-0.077
			L-21.16-8.59l-0.11-0.05l-0.114-0.046l-0.121-0.033l-0.129-0.019h-0.127h-0.13l-0.126,0.019l-0.122,0.033l-0.117,0.046
			l-0.113,0.05l-0.105,0.071l-0.101,0.077l-0.097,0.091l-0.09,0.1l-0.075,0.103l-0.064,0.11l-0.054,0.116L-23-7.809l-0.029,0.129
			l-0.013,0.129l-0.007,0.133l0.007,0.129l0.013,0.126L-23-7.041l0.042,0.122l0.058,0.108l0.064,0.111l0.075,0.109l0.086,0.095
			l0.102,0.09l0.101,0.083l0.105,0.064l0.113,0.059l0.117,0.038l0.122,0.033l0.126,0.017L-21.761-6.107z"/>
	</g>
	<g id="g2642" transform="matrix(4.0960457,0,0,4.0960457,302.3758,202.18062)">
		<path id="path2644" fill="#E60005" d="M-18.961,5.14L-18.961,5.14h-0.363l-0.16,0.007l-0.181,0.025l-0.179,0.04l-0.148,0.05
			l-0.128,0.056l-0.064,0.041l-0.14,0.097l-0.141,0.121l-0.058,0.063l-0.069,0.097l-0.065,0.116l-0.051,0.115l-0.047,0.108v0.02
			l-0.031,0.101l-0.012,0.212l-0.007,0.422l-0.005,0.379h3.245h3.253v0.446h-6.498l-0.007,3.074v0.047l0.019,0.236l0.018,0.133
			l0.031,0.091l0.014,0.031l0.056,0.135l0.058,0.103l0.096,0.134l0.078,0.096l0.032,0.025l0.154,0.13l0.097,0.058l0.102,0.044
			l0.082,0.038l0.199,0.064l0.217,0.038l0.096,0.014h0.959h1.832h1.884h1.134l0.126-0.019l0.128-0.033l0.154-0.051l0.198-0.083
			l0.066-0.031l0.043-0.027l0.121-0.076l0.116-0.078l0.032-0.025l0.133-0.128l0.054-0.064l0.043-0.064l0.047-0.075l0.09-0.186
			l0.019-0.085l0.031-0.198l0.014-0.212V10.62V9.974h-3.201h-3.28V9.789V9.495h6.481V7.944l-0.006-1.58l-0.014-0.098l-0.025-0.089
			l-0.046-0.134l-0.064-0.159l-0.031-0.06l-0.047-0.072l-0.058-0.081l-0.084-0.096l-0.094-0.098l-0.076-0.062l-0.073-0.051
			l-0.017-0.007l-0.077-0.045l-0.167-0.079l-0.154-0.05l-0.063-0.018l-0.116-0.021l-0.147-0.007h-1.017h-1.614h-1.638H-18.961z"/>
	</g>
	<g id="g2646" transform="matrix(4.0960457,0,0,4.0960457,264.23137,194.83924)">
		<path id="path2648" fill="#004D9F" d="M-14.035,6.088h-3.989v1.697h3.53v2.221h-3.53v1.723h3.984v2.215h-5.235l-0.13-0.006
			l-0.129-0.019l-0.121-0.026l-0.115-0.045l-0.109-0.052l-0.104-0.062l-0.102-0.079l-0.082-0.078l-0.083-0.089l-0.071-0.096
			l-0.062-0.108l-0.059-0.11l-0.04-0.115l-0.031-0.123l-0.017-0.12l-0.009-0.13V5.134l0.009-0.131l0.017-0.126l0.031-0.12
			l0.04-0.115l0.059-0.111l0.062-0.101l0.071-0.103l0.083-0.09l0.082-0.077l0.102-0.075l0.104-0.058l0.109-0.059l0.115-0.039
			l0.121-0.03l0.129-0.02l0.13-0.007l0.158,0.013h5.082V6.088z"/>
	</g>
	<g id="g2650" transform="matrix(4.0960457,0,0,4.0960457,33.659224,246.83653)">
		<path id="path2652" fill="#004D9F" d="M15.743-0.627h1.16l0.243-0.01L17.39-0.67l0.121-0.028l0.115-0.031l0.109-0.046l0.107-0.049
			L17.94-0.89l0.09-0.076l0.073-0.082l0.066-0.103l0.058-0.116l0.04-0.128l0.025-0.134l0.008-0.16L18.292-1.87l-0.03-0.151
			l-0.047-0.136L18.158-2.28l-0.079-0.1l-0.089-0.085l-0.097-0.073l-0.113-0.06l-0.116-0.047l-0.121-0.036l-0.127-0.025
			l-0.136-0.026l-0.274-0.019L16.736-2.76l-0.493,0.008L15.743-2.76V-0.627z M18.541-8.809h2.856l-2.105,4.534v-0.04l0.177,0.09
			l0.172,0.101l0.162,0.116l0.154,0.129l0.14,0.139l0.129,0.15l0.121,0.153l0.11,0.167l0.102,0.179l0.081,0.178l0.072,0.199
			l0.063,0.198l0.043,0.205l0.039,0.218l0.02,0.217l0.007,0.233v0.176l-0.013,0.187l-0.026,0.173l-0.027,0.174l-0.037,0.157
			l-0.044,0.156l-0.05,0.146l-0.06,0.142l-0.065,0.133L20.49-0.069l-0.079,0.127l-0.084,0.116l-0.09,0.109l-0.095,0.101
			l-0.105,0.097l-0.102,0.091l-0.23,0.164l-0.243,0.137l-0.257,0.121l-0.273,0.089L18.644,1.16l-0.295,0.052l-0.301,0.025
			L17.736,1.25h-4.523V-8.815h2.53l0.007,3.916h1.127L18.541-8.809z"/>
	</g>
</g>
</svg>
