<?xml version="1.0" encoding="utf-8"?>
<!-- Generator: Adobe Illustrator 16.0.0, SVG Export Plug-In . SVG Version: 6.00 Build 0)  -->
<!DOCTYPE svg PUBLIC "-//W3C//DTD SVG 1.1//EN" "http://www.w3.org/Graphics/SVG/1.1/DTD/svg11.dtd">
<svg version="1.1" id="Layer_1" xmlns="http://www.w3.org/2000/svg" xmlns:xlink="http://www.w3.org/1999/xlink" x="0px" y="0px"
	 width="306px" height="306px" viewBox="0 0 306 306" enable-background="new 0 0 306 306" xml:space="preserve">
<g id="Layer_1_1_" display="none">
	<g display="inline">
		<circle opacity="0.8" fill="#BE0B51" enable-background="new    " cx="48.797" cy="61.797" r="30.797"/>
		<circle opacity="0.8" fill="#EE3500" enable-background="new    " cx="79.594" cy="61.797" r="30.797"/>
		<circle opacity="0.8" fill="#EE7400" enable-background="new    " cx="110.391" cy="61.797" r="30.797"/>
		<circle opacity="0.8" fill="#CD8D04" enable-background="new    " cx="141.188" cy="61.797" r="30.797"/>
		<circle opacity="0.8" fill="#ABA608" enable-background="new    " cx="171.984" cy="61.797" r="30.797"/>
		<circle opacity="0.8" fill="#8ABE0B" enable-background="new    " cx="202.782" cy="61.797" r="30.797"/>
		<circle opacity="0.8" fill="#0B74BE" enable-background="new    " cx="233.579" cy="61.797" r="30.797"/>
		<circle opacity="0.8" fill="#BE0B51" enable-background="new    " cx="48.797" cy="92.594" r="30.797"/>
		<circle opacity="0.8" fill="#EE3500" enable-background="new    " cx="79.594" cy="92.594" r="30.797"/>
		<circle opacity="0.8" fill="#EE7400" enable-background="new    " cx="110.391" cy="92.594" r="30.797"/>
		<circle opacity="0.8" fill="#CD8D04" enable-background="new    " cx="141.188" cy="92.594" r="30.797"/>
		<circle opacity="0.8" fill="#ABA608" enable-background="new    " cx="171.984" cy="92.594" r="30.797"/>
		<circle opacity="0.8" fill="#8ABE0B" enable-background="new    " cx="202.782" cy="92.594" r="30.797"/>
		<circle opacity="0.8" fill="#0B74BE" enable-background="new    " cx="233.579" cy="92.594" r="30.797"/>
		<circle opacity="0.8" fill="#BE0B51" enable-background="new    " cx="48.797" cy="123.392" r="30.797"/>
		<circle opacity="0.8" fill="#EE3500" enable-background="new    " cx="79.594" cy="123.392" r="30.797"/>
		<circle opacity="0.8" fill="#EE7400" enable-background="new    " cx="110.391" cy="123.392" r="30.797"/>
		<circle opacity="0.8" fill="#CD8D04" enable-background="new    " cx="141.188" cy="123.392" r="30.797"/>
		<circle opacity="0.8" fill="#ABA608" enable-background="new    " cx="171.984" cy="123.392" r="30.797"/>
		<circle opacity="0.8" fill="#8ABE0B" enable-background="new    " cx="202.782" cy="123.392" r="30.797"/>
		<circle opacity="0.8" fill="#0B74BE" enable-background="new    " cx="233.579" cy="123.392" r="30.797"/>
		<circle opacity="0.8" fill="#BE0B51" enable-background="new    " cx="48.797" cy="154.188" r="30.797"/>
		<circle opacity="0.8" fill="#EE3500" enable-background="new    " cx="79.594" cy="154.188" r="30.797"/>
		<circle opacity="0.8" fill="#EE7400" enable-background="new    " cx="110.391" cy="154.188" r="30.797"/>
		<circle opacity="0.8" fill="#CD8D04" enable-background="new    " cx="141.188" cy="154.188" r="30.797"/>
		<circle opacity="0.8" fill="#ABA608" enable-background="new    " cx="171.984" cy="154.188" r="30.797"/>
		<circle opacity="0.8" fill="#8ABE0B" enable-background="new    " cx="202.782" cy="154.188" r="30.797"/>
		<circle opacity="0.8" fill="#0B74BE" enable-background="new    " cx="233.579" cy="154.188" r="30.797"/>
		<circle opacity="0.8" fill="#BE0B51" enable-background="new    " cx="48.797" cy="185.498" r="30.797"/>
		<circle opacity="0.8" fill="#EE3500" enable-background="new    " cx="79.594" cy="185.498" r="30.797"/>
		<circle opacity="0.8" fill="#EE7400" enable-background="new    " cx="110.391" cy="185.498" r="30.797"/>
		<circle opacity="0.8" fill="#CD8D04" enable-background="new    " cx="141.188" cy="185.498" r="30.797"/>
		<circle opacity="0.8" fill="#ABA608" enable-background="new    " cx="171.984" cy="185.498" r="30.797"/>
		<circle opacity="0.8" fill="#8ABE0B" enable-background="new    " cx="202.782" cy="185.498" r="30.797"/>
		<circle opacity="0.8" fill="#0B74BE" enable-background="new    " cx="233.579" cy="185.498" r="30.797"/>
		<circle opacity="0.8" fill="#BE0B51" enable-background="new    " cx="48.797" cy="216.296" r="30.797"/>
		<circle opacity="0.8" fill="#EE3500" enable-background="new    " cx="79.594" cy="216.296" r="30.797"/>
		<circle opacity="0.8" fill="#EE7400" enable-background="new    " cx="110.391" cy="216.296" r="30.797"/>
		<circle opacity="0.8" fill="#CD8D04" enable-background="new    " cx="141.188" cy="216.296" r="30.797"/>
		<circle opacity="0.8" fill="#ABA608" enable-background="new    " cx="171.984" cy="216.296" r="30.797"/>
		<circle opacity="0.8" fill="#8ABE0B" enable-background="new    " cx="202.782" cy="216.296" r="30.797"/>
		<circle opacity="0.8" fill="#0B74BE" enable-background="new    " cx="233.579" cy="216.296" r="30.797"/>
		<circle opacity="0.8" fill="#BE0B51" enable-background="new    " cx="48.797" cy="247.092" r="30.797"/>
		<circle opacity="0.8" fill="#EE3500" enable-background="new    " cx="79.594" cy="247.092" r="30.797"/>
		<circle opacity="0.8" fill="#EE7400" enable-background="new    " cx="110.391" cy="247.092" r="30.797"/>
		<circle opacity="0.8" fill="#CD8D04" enable-background="new    " cx="141.188" cy="247.092" r="30.797"/>
		<circle opacity="0.8" fill="#ABA608" enable-background="new    " cx="171.984" cy="247.092" r="30.797"/>
		<circle opacity="0.8" fill="#8ABE0B" enable-background="new    " cx="202.782" cy="247.092" r="30.797"/>
		<circle opacity="0.8" fill="#0B74BE" enable-background="new    " cx="233.579" cy="247.092" r="30.797"/>
	</g>
</g>
<g id="Layer_2" display="none">
	<g display="inline">
		<g>
			<path d="M306.75,153c-0.21-45.526-19.087-89.526-53.445-119.684C219.203,3.387,172.878-9.705,128.129-2.448
				C84.116,4.69,45.756,31.676,22.407,69.354C-1.972,108.695-6.958,158.782,6.91,202.669c13.35,42.249,44.931,77.457,85.486,95.253
				c41.669,18.284,90.439,16.215,130.769-4.555C275.223,266.559,306.482,210.927,306.75,153c0.01-2.124-0.63-7.5-3.75-7.5
				c-3.134,0-3.74,5.375-3.75,7.5c-0.206,44.682-22.367,86.691-58.025,113.359c-36.643,27.402-85.326,36.022-129.261,23.438
				c-42.726-12.238-77.95-44.038-95.036-84.941C-0.449,163.26,5.25,115.485,29.106,77.731
				c23.879-37.791,65.718-62.305,109.935-66.59c45.279-4.389,90.656,12.973,121.77,46.034
				c24.336,25.859,38.276,60.313,38.439,95.825c0.01,2.125,0.616,7.5,3.75,7.5C306.12,160.5,306.76,155.124,306.75,153z"/>
		</g>
	</g>
</g>
<g display="none">
	<g display="inline">
		<path d="M364.75,155.002C364.48,95.304,340.2,37.606,296.008-1.94c-43.861-39.246-103.445-56.414-161.003-46.897
			C78.395-39.478,29.056-4.09-0.975,45.317c-31.357,51.588-37.771,117.267-19.933,174.817
			c17.17,55.4,57.791,101.568,109.953,124.905c53.595,23.976,116.324,21.263,168.197-5.973
			C324.199,303.912,364.406,230.962,364.75,155.002c0.012-2.785-0.811-9.834-4.823-9.834c-4.03,0-4.811,7.047-4.823,9.834
			c-0.266,58.592-28.77,113.68-74.633,148.649c-47.131,35.932-109.746,47.236-166.257,30.733
			C59.259,318.337,13.954,276.641-8.022,223C-30.373,168.456-23.043,105.809,7.641,56.302c30.713-49.556,84.527-81.702,141.4-87.32
			c58.238-5.756,116.604,17.011,156.622,60.364c31.301,33.91,49.231,79.089,49.44,125.656c0.014,2.787,0.793,9.835,4.823,9.835
			C363.939,164.837,364.762,157.788,364.75,155.002z"/>
	</g>
</g>
<g>
	<g>
		<g>
			<path fill="#484B4C" d="M122.808,13.706c0,64.756,0,129.513,0,194.269c0,22.664,0,45.327,0,67.993
				c0,3.408,14.854,8.418,17.079,9.36c0.891,0.375,18.558,6.861,18.558,5.725c0-64.756,0-129.513,0-194.268
				c0-22.664,0-45.329,0-67.994c0-3.408-14.853-8.417-17.077-9.358C140.477,19.056,122.808,12.569,122.808,13.706L122.808,13.706z"
				/>
		</g>
	</g>
	<g>
		<g>
			<path fill="#484B4C" d="M19.636,170.805c61.941,0,123.884,0,185.825,0c32.381,0,64.762,0,97.143,0
				c0.955,0-6.11-17.709-6.529-18.612c-1.112-2.391-6.514-16.926-10.018-16.926c-61.941,0-123.883,0-185.827,0
				c-32.38,0-64.761,0-97.141,0c-0.955,0,6.109,17.71,6.53,18.613C10.732,156.27,16.134,170.805,19.636,170.805L19.636,170.805z"/>
		</g>
	</g>
	<g>
		<g>
			<path fill="#484B4C" d="M168.232,186.977c0.735,34.391,5.496,68.631,5.615,103.033c0.006,1.84,18.278-0.969,19.356-1.143
				c1.763-0.286,18.64-2.217,18.752-5.027c0.771-19.41,1.44-38.816,5.631-57.846c2.197-9.982,5.509-19.901,11.082-28.473
				c2.511-3.861,5.649-7.119,9.401-9.723c1.537-1.07,3.199-1.939,4.953-2.562c-7.318,1.268-14.64,2.535-21.959,3.801
				c-0.695,0.059-0.758,0.076-0.186,0.052c1.508,0.119,2.988,0.435,4.458,0.781c19.16,4.534,25.519,29.204,28.364,46.138
				c2.809,16.729,2.334,33.488,2.832,50.359c0.056,1.912,18.246-0.963,19.357-1.143c1.58-0.256,18.828-2.418,18.752-5.026
				c-0.5-16.894-0.16-33.593-2.834-50.36c-2.914-18.261-9.59-40.466-28.83-46.654c-5.266-1.695-11.17-1.537-16.596-1.176
				c-12.316,0.823-24.755,2.944-36.57,6.598c-9.32,2.883-16.209,9.758-21.119,18.105c-10.903,18.533-12.801,42.454-14.032,63.532
				c-0.384,6.583-0.552,13.179-0.813,19.767c12.702-2.058,25.406-4.113,38.108-6.17c-0.119-34.402-4.88-68.645-5.614-103.033
				c-0.04-1.89-18.257,0.965-19.357,1.145C185.384,182.208,168.177,184.343,168.232,186.977L168.232,186.977z"/>
		</g>
	</g>
</g>
<g id="blue_background" display="none">
	<g display="inline">
		<g>
			<path d="M306.75,153c-0.21-45.526-19.087-89.526-53.445-119.684C219.203,3.387,172.878-9.705,128.129-2.448
				C84.116,4.69,45.756,31.676,22.407,69.354C-1.972,108.695-6.958,158.782,6.91,202.669c13.35,42.249,44.931,77.457,85.486,95.253
				c41.669,18.284,90.439,16.215,130.769-4.555C275.223,266.559,306.482,210.927,306.75,153c0.01-2.124-0.63-7.5-3.75-7.5
				c-3.134,0-3.74,5.375-3.75,7.5c-0.206,44.682-22.367,86.691-58.025,113.359c-36.643,27.402-85.326,36.022-129.261,23.438
				c-42.726-12.238-77.95-44.038-95.036-84.941C-0.449,163.26,5.25,115.485,29.106,77.731
				c23.879-37.791,65.718-62.305,109.935-66.59c45.279-4.389,90.656,12.973,121.77,46.034
				c24.336,25.859,38.276,60.313,38.439,95.825c0.01,2.125,0.616,7.5,3.75,7.5C306.12,160.5,306.76,155.124,306.75,153z"/>
		</g>
	</g>
	<circle display="inline" fill="#0B74BE" cx="153" cy="153" r="150"/>
	<path display="inline" fill="#F2F2F2" d="M253.355,150.856c-0.867-1.823-5.065-12.856-7.789-12.856c-33.188,0-66.379,0-99.566,0
		c0-9.799,0-19.597,0-29.396c0-17.284,0-34.568,0-51.852c0-2.599-11.195-6.419-12.925-7.138C132.383,49.327,119,44.38,119,45.248
		c0,30.917,0,61.835,0,92.752c-5.969,0-11.939,0-17.908,0c-25.175,0-50.35,0-75.525,0c-0.743,0,4.751,13.455,5.078,14.144
		C31.51,153.966,35.71,165,38.433,165c26.856,0,53.711,0,80.567,0c0,9.465,0,18.932,0,28.396c0,17.283,0,34.566,0,51.853
		c0,2.599,11.195,6.419,12.925,7.138c0.692,0.287,14.075,5.233,14.075,4.366c0-30.584,0-61.168,0-91.752c12.303,0,24.605,0,36.908,0
		c25.175,0,50.351,0,75.525,0C259.177,165,253.682,151.544,253.355,150.856z"/>
	<path display="inline" fill="#F2F2F2" d="M227.625,174.488c-4.092-1.29-8.682-1.172-12.902-0.896
		c-9.574,0.631-19.244,2.245-28.433,5.032c-0.853,0.259-1.675,0.562-2.476,0.899c-0.094-2.28-0.174-4.562-0.225-6.849
		c-0.029-1.442-14.193,0.735-15.05,0.871c-1.245,0.197-14.623,1.824-14.579,3.834c0.571,26.226,4.271,52.336,4.365,78.572
		c0.005,1.403,14.212-0.738,15.05-0.871c1.37-0.218,14.492-1.69,14.579-3.834c0.602-14.802,1.12-29.601,4.378-44.112
		c1.708-7.613,4.283-15.177,8.616-21.714c0.867-1.312,1.851-2.514,2.91-3.639c10.676,6.241,14.638,21.817,16.551,32.987
		c2.186,12.758,1.814,25.539,2.201,38.402c0.045,1.459,14.188-0.732,15.051-0.87c1.229-0.194,14.639-1.844,14.579-3.834
		c-0.39-12.883-0.123-25.616-2.202-38.403C247.775,196.145,242.585,179.21,227.625,174.488z"/>
</g>
<g id="dark_background" display="none">
	<g display="inline">
		<g>
			<path d="M306.75,153c-0.21-45.526-19.087-89.526-53.445-119.684C219.203,3.387,172.878-9.705,128.129-2.448
				C84.116,4.69,45.756,31.676,22.407,69.354C-1.972,108.695-6.958,158.782,6.91,202.669c13.35,42.249,44.931,77.457,85.486,95.253
				c41.669,18.284,90.439,16.215,130.769-4.555C275.223,266.559,306.482,210.927,306.75,153c0.01-2.124-0.63-7.5-3.75-7.5
				c-3.134,0-3.74,5.375-3.75,7.5c-0.206,44.682-22.367,86.691-58.025,113.359c-36.643,27.402-85.326,36.022-129.261,23.438
				c-42.726-12.238-77.95-44.038-95.036-84.941C-0.449,163.26,5.25,115.485,29.106,77.731
				c23.879-37.791,65.718-62.305,109.935-66.59c45.279-4.389,90.656,12.973,121.77,46.034
				c24.336,25.859,38.276,60.313,38.439,95.825c0.01,2.125,0.616,7.5,3.75,7.5C306.12,160.5,306.76,155.124,306.75,153z"/>
		</g>
	</g>
	<circle display="inline" fill="#484B4C" cx="153" cy="153" r="150"/>
	<path display="inline" fill="#F2F2F2" d="M253.355,150.856c-0.867-1.823-5.065-12.856-7.789-12.856c-33.188,0-66.379,0-99.566,0
		c0-9.799,0-19.597,0-29.396c0-17.284,0-34.568,0-51.852c0-2.599-11.195-6.419-12.925-7.138C132.383,49.327,119,44.38,119,45.248
		c0,30.917,0,61.835,0,92.752c-5.969,0-11.939,0-17.908,0c-25.175,0-50.35,0-75.525,0c-0.743,0,4.751,13.455,5.078,14.144
		C31.51,153.966,35.71,165,38.433,165c26.856,0,53.711,0,80.567,0c0,9.465,0,18.932,0,28.396c0,17.283,0,34.566,0,51.853
		c0,2.599,11.195,6.419,12.925,7.138c0.692,0.287,14.075,5.233,14.075,4.366c0-30.584,0-61.168,0-91.752c12.303,0,24.605,0,36.908,0
		c25.175,0,50.351,0,75.525,0C259.177,165,253.682,151.544,253.355,150.856z"/>
	<path display="inline" fill="#F2F2F2" d="M227.625,174.488c-4.092-1.29-8.682-1.172-12.902-0.896
		c-9.574,0.631-19.244,2.245-28.433,5.032c-0.853,0.259-1.675,0.562-2.476,0.899c-0.094-2.28-0.174-4.562-0.225-6.849
		c-0.029-1.442-14.193,0.735-15.05,0.871c-1.245,0.197-14.623,1.824-14.579,3.834c0.571,26.226,4.271,52.336,4.365,78.572
		c0.005,1.403,14.212-0.738,15.05-0.871c1.37-0.218,14.492-1.69,14.579-3.834c0.602-14.802,1.12-29.601,4.378-44.112
		c1.708-7.613,4.283-15.177,8.616-21.714c0.867-1.312,1.851-2.514,2.91-3.639c10.676,6.241,14.638,21.817,16.551,32.987
		c2.186,12.758,1.814,25.539,2.201,38.402c0.045,1.459,14.188-0.732,15.051-0.87c1.229-0.194,14.639-1.844,14.579-3.834
		c-0.39-12.883-0.123-25.616-2.202-38.403C247.775,196.145,242.585,179.21,227.625,174.488z"/>
</g>
<g id="rainbow_background" display="none">
	<g display="inline">
		<g>
			<g>
				<defs>
					<circle id="SVGID_1_" cx="153" cy="153" r="150"/>
				</defs>
				<clipPath id="SVGID_2_">
					<use xlink:href="#SVGID_1_"  overflow="visible"/>
				</clipPath>
				<g clip-path="url(#SVGID_2_)">
					
						<image overflow="visible" enable-background="new    " width="382" height="384" xlink:href="C9DF5378C3536C14.png"  transform="matrix(1 0 0 1 -38 -39)">
					</image>
				</g>
			</g>
		</g>
	</g>
	<path display="inline" fill="#F2F2F2" d="M253.355,150.856c-0.867-1.823-5.065-12.856-7.789-12.856c-33.188,0-66.379,0-99.566,0
		c0-9.799,0-19.597,0-29.396c0-17.284,0-34.568,0-51.852c0-2.599-11.195-6.419-12.925-7.138C132.383,49.327,119,44.38,119,45.248
		c0,30.917,0,61.835,0,92.752c-5.969,0-11.939,0-17.908,0c-25.175,0-50.35,0-75.525,0c-0.743,0,4.751,13.455,5.078,14.144
		C31.51,153.966,35.71,165,38.433,165c26.856,0,53.711,0,80.567,0c0,9.465,0,18.932,0,28.396c0,17.283,0,34.566,0,51.853
		c0,2.599,11.195,6.419,12.925,7.138c0.692,0.287,14.075,5.233,14.075,4.366c0-30.584,0-61.168,0-91.752c12.303,0,24.605,0,36.908,0
		c25.175,0,50.351,0,75.525,0C259.177,165,253.682,151.544,253.355,150.856z"/>
	<path display="inline" fill="#F2F2F2" d="M227.625,174.488c-4.092-1.29-8.682-1.172-12.902-0.896
		c-9.574,0.631-19.244,2.245-28.433,5.032c-0.853,0.259-1.675,0.562-2.476,0.899c-0.094-2.28-0.174-4.562-0.225-6.849
		c-0.029-1.442-14.193,0.735-15.05,0.871c-1.245,0.197-14.623,1.824-14.579,3.834c0.571,26.226,4.271,52.336,4.365,78.572
		c0.005,1.403,14.212-0.738,15.05-0.871c1.37-0.218,14.492-1.69,14.579-3.834c0.602-14.802,1.12-29.601,4.378-44.112
		c1.708-7.613,4.283-15.177,8.616-21.714c0.867-1.312,1.851-2.514,2.91-3.639c10.676,6.241,14.638,21.817,16.551,32.987
		c2.186,12.758,1.814,25.539,2.201,38.402c0.045,1.459,14.188-0.732,15.051-0.87c1.229-0.194,14.639-1.844,14.579-3.834
		c-0.39-12.883-0.123-25.616-2.202-38.403C247.775,196.145,242.585,179.21,227.625,174.488z"/>
</g>
<g id="rainbow" display="none">
	<g display="inline">
		<g>
			<g>
				<defs>
					<path id="SVGID_3_" d="M258.434,165c-25.175,0-50.351,0-75.523,0c-12.305,0-24.604,0-36.908,0c0,30.584,0,61.168,0,91.752
						c0,0.867-13.383-4.079-14.075-4.365c-1.73-0.72-12.925-4.539-12.925-7.139c0-17.284,0-34.568,0-51.854
						c0-9.465,0-18.932,0-28.396c-26.855,0-53.711,0-80.567,0c-2.723,0-6.923-11.034-7.788-12.856
						C30.318,151.455,24.824,138,25.567,138c25.175,0,50.35,0,75.525,0c5.969,0,11.939,0,17.908,0c0-30.917,0-61.835,0-92.752
						c0-0.867,13.383,4.08,14.075,4.367c1.73,0.718,12.925,4.539,12.925,7.138c0,17.284,0,34.568,0,51.852
						c0,9.799,0,19.597,0,29.396c33.188,0,66.378,0,99.566,0c2.724,0,6.923,11.033,7.789,12.856
						C253.682,151.544,259.177,165,258.434,165z M227.625,174.488c-4.092-1.29-8.682-1.172-12.902-0.896
						c-9.574,0.631-19.244,2.245-28.433,5.032c-0.853,0.259-1.675,0.562-2.476,0.899c-0.094-2.28-0.174-4.562-0.225-6.849
						c-0.029-1.442-14.193,0.735-15.05,0.871c-1.245,0.197-14.623,1.824-14.579,3.834c0.571,26.226,4.271,52.336,4.365,78.572
						c0.005,1.403,14.212-0.738,15.05-0.871c1.37-0.218,14.492-1.69,14.579-3.834c0.602-14.802,1.12-29.601,4.378-44.112
						c1.708-7.613,4.283-15.177,8.616-21.714c0.867-1.312,1.851-2.514,2.91-3.639c10.676,6.241,14.638,21.817,16.551,32.987
						c2.186,12.758,1.814,25.539,2.201,38.402c0.045,1.459,14.188-0.732,15.051-0.87c1.229-0.194,14.639-1.844,14.579-3.834
						c-0.39-12.883-0.123-25.616-2.202-38.403C247.775,196.145,242.585,179.21,227.625,174.488z"/>
				</defs>
				<clipPath id="SVGID_4_">
					<use xlink:href="#SVGID_3_"  overflow="visible"/>
				</clipPath>
				<g clip-path="url(#SVGID_4_)">
					
						<image overflow="visible" enable-background="new    " width="396" height="397" xlink:href="C9DF5378C3536C15.png"  transform="matrix(1 0 0 1 -60 -7)">
					</image>
				</g>
			</g>
		</g>
	</g>
	<g display="inline">
		<path fill="#383838" d="M253.355,150.856c-0.867-1.823-5.065-12.856-7.789-12.856c-33.188,0-66.379,0-99.566,0
			c0-9.799,0-19.597,0-29.396c0-17.284,0-34.568,0-51.852c0-2.599-11.195-6.419-12.925-7.138C132.383,49.327,119,44.38,119,45.248
			c0,30.917,0,61.835,0,92.752c-5.969,0-11.939,0-17.908,0c-25.175,0-50.35,0-75.525,0c-0.743,0,4.751,13.455,5.078,14.144
			C31.51,153.966,35.71,165,38.433,165c26.856,0,53.711,0,80.567,0c0,9.465,0,18.932,0,28.396c0,17.283,0,34.566,0,51.853
			c0,2.599,11.195,6.419,12.925,7.138c0.692,0.287,14.075,5.233,14.075,4.366c0-30.584,0-61.168,0-91.752
			c12.303,0,24.605,0,36.908,0c25.175,0,50.351,0,75.525,0C259.177,165,253.682,151.544,253.355,150.856z"/>
		<path fill="#383838" d="M227.625,174.488c-4.092-1.29-8.682-1.172-12.902-0.896c-9.574,0.631-19.244,2.245-28.433,5.032
			c-0.853,0.259-1.675,0.562-2.476,0.899c-0.094-2.28-0.174-4.562-0.225-6.849c-0.029-1.442-14.193,0.735-15.05,0.871
			c-1.245,0.197-14.623,1.824-14.579,3.834c0.571,26.226,4.271,52.336,4.365,78.572c0.005,1.403,14.212-0.738,15.05-0.871
			c1.37-0.218,14.492-1.69,14.579-3.834c0.602-14.802,1.12-29.601,4.378-44.112c1.708-7.613,4.283-15.177,8.616-21.714
			c0.867-1.312,1.851-2.514,2.91-3.639c10.676,6.241,14.638,21.817,16.551,32.987c2.186,12.758,1.814,25.539,2.201,38.402
			c0.045,1.459,14.188-0.732,15.051-0.87c1.229-0.194,14.639-1.844,14.579-3.834c-0.39-12.883-0.123-25.616-2.202-38.403
			C247.775,196.145,242.585,179.21,227.625,174.488z"/>
	</g>
</g>
</svg>
