<?xml version="1.0" encoding="utf-8"?>
<!-- Generator: Adobe Illustrator 16.0.0, SVG Export Plug-In . SVG Version: 6.00 Build 0)  -->
<!DOCTYPE svg PUBLIC "-//W3C//DTD SVG 1.1//EN" "http://www.w3.org/Graphics/SVG/1.1/DTD/svg11.dtd">
<svg version="1.1" id="Layer_1" xmlns="http://www.w3.org/2000/svg" xmlns:xlink="http://www.w3.org/1999/xlink" x="0px" y="0px"
	 width="300px" height="200px" viewBox="147.638 -29.134 300 200" enable-background="new 147.638 -29.134 300 200"
	 xml:space="preserve">
<g id="Ebene_x0020_1">
	<path fill="#009999" d="M419.957,51.645v7.539c-3.905-1.475-7.383-2.22-10.426-2.22c-1.803,0-3.237,0.334-4.317,0.979
		c-1.079,0.651-1.63,1.452-1.63,2.398c0,1.257,1.219,2.375,3.672,3.377l7.088,3.449c5.73,2.732,8.573,6.359,8.573,10.915
		c0,3.789-1.508,6.81-4.551,9.047c-3.021,2.259-7.088,3.377-12.15,3.377c-2.337,0-4.435-0.101-6.298-0.312
		c-1.863-0.2-4.006-0.612-6.381-1.202v-7.889c4.355,1.475,8.322,2.22,11.894,2.22c4.262,0,6.382-1.235,6.382-3.728
		c0-1.24-0.868-2.242-2.631-3.026l-7.873-3.354c-2.903-1.313-5.062-2.904-6.476-4.79c-1.391-1.903-2.098-4.083-2.098-6.576
		c0-3.488,1.469-6.297,4.373-8.434c2.927-2.12,6.81-3.182,11.639-3.182c1.569,0,3.377,0.139,5.38,0.395
		C416.147,50.899,418.088,51.233,419.957,51.645L419.957,51.645z"/>
	<path fill="#009999" d="M197,51.645v7.539c-3.905-1.475-7.377-2.22-10.42-2.22c-1.809,0-3.238,0.334-4.317,0.979
		c-1.079,0.651-1.63,1.452-1.63,2.398c0,1.257,1.235,2.375,3.689,3.377l7.087,3.449c5.708,2.732,8.557,6.359,8.557,10.915
		c0,3.789-1.514,6.81-4.534,9.047c-3.043,2.259-7.088,3.377-12.167,3.377c-2.337,0-4.44-0.101-6.303-0.312
		c-1.864-0.2-3.983-0.612-6.376-1.202v-7.889c4.373,1.475,8.34,2.22,11.889,2.22c4.262,0,6.382-1.235,6.382-3.728
		c0-1.24-0.863-2.242-2.61-3.026l-7.872-3.354c-2.926-1.313-5.085-2.904-6.476-4.79c-1.413-1.903-2.103-4.083-2.103-6.576
		c0-3.488,1.458-6.297,4.378-8.434c2.904-2.12,6.793-3.182,11.622-3.182c1.585,0,3.372,0.139,5.396,0.395
		C193.195,50.899,195.136,51.233,197,51.645z"/>
	<polygon fill="#009999" points="205.123,50.938 216.667,50.938 216.667,89.798 205.123,89.798 	"/>
	<polygon fill="#009999" points="253.858,50.938 253.858,58.121 236.706,58.121 236.706,66.738 251.583,66.738 251.583,73.214 
		236.706,73.214 236.706,82.26 254.208,82.26 254.208,89.798 225.596,89.798 225.596,50.938 	"/>
	<polygon fill="#009999" points="307.75,50.938 307.75,89.798 296.973,89.798 296.973,64.168 285.792,90.154 279.138,90.154 
		268.384,64.168 268.384,89.798 260.59,89.798 260.59,50.938 274.682,50.938 284.301,74.727 294.365,50.938 	"/>
	<polygon fill="#009999" points="344.925,50.938 344.925,58.121 327.866,58.121 327.866,66.738 342.743,66.738 342.743,73.214 
		327.866,73.214 327.866,82.26 345.275,82.26 345.275,89.798 316.663,89.798 316.663,50.938 	"/>
	<polygon fill="#009999" points="385.431,50.938 385.431,89.798 373.187,89.798 359.446,64.874 359.446,89.798 351.656,89.798 
		351.656,50.938 364.258,50.938 377.643,75.434 377.643,50.938 	"/>
</g>
</svg>
