<?xml version="1.0" encoding="UTF-8"?>
<svg width="802px" height="495px" viewBox="0 0 802 495" version="1.1" xmlns="http://www.w3.org/2000/svg" xmlns:xlink="http://www.w3.org/1999/xlink" style="background: #F7F7F7;">
    <!-- Generator: Sketch 47.1 (45422) - http://www.bohemiancoding.com/sketch -->
    <title>2--process--double-diamond-2</title>
    <desc>Created with Sketch.</desc>
    <defs>
        <rect id="path-1" x="397" y="0" width="8" height="495"></rect>
        <rect id="path-2" x="256" y="0" width="8" height="495"></rect>
        <rect id="path-3" x="115" y="0" width="8" height="495"></rect>
        <rect id="path-4" x="538" y="0" width="8" height="495"></rect>
        <rect id="path-5" x="679" y="0" width="8" height="495"></rect>
        <path d="M120.202986,272.959341 L120,273.191584 L120.405972,273.191584 L238.700074,408.535873 C245.775444,417.392529 252.952373,421.879777 260.23086,421.997618 C267.509348,422.115459 274.686277,417.860605 281.761647,409.233055 L400.665101,273.191584 L400.928927,273.191584 L400.797014,273.040659 L401,272.808416 L400.594028,272.808416 L282.299926,137.464127 C275.224556,128.607471 268.047627,124.120223 260.76914,124.002382 C253.490652,123.884541 246.313723,128.139395 239.238353,136.766945 L120.334899,272.808416 L120.071073,272.808416 L120.202986,272.959341 Z" id="path-6"></path>
        <path d="M401.202986,272.959341 L401,273.191584 L401.405972,273.191584 L519.700074,408.535873 C526.775444,417.392529 533.952373,421.879777 541.23086,421.997618 C548.509348,422.115459 555.686277,417.860605 562.761647,409.233055 L681.665101,273.191584 L681.928927,273.191584 L681.797014,273.040659 L682,272.808416 L681.594028,272.808416 L563.299926,137.464127 C556.224556,128.607471 549.047627,124.120223 541.76914,124.002382 C534.490652,123.884541 527.313723,128.139395 520.238353,136.766945 L401.334899,272.808416 L401.071073,272.808416 L401.202986,272.959341 Z" id="path-7"></path>
        <circle id="path-8" cx="401.5" cy="273.5" r="16.5"></circle>
    </defs>
    <g id="Page-1" stroke="none" stroke-width="1" fill="none" fill-rule="evenodd">
        <g id="2--process--double-diamond-2">
            <rect id="Rectangle-2-Copy" fill="#F7F7F7" x="268" y="0" width="125" height="495"></rect>
            <rect id="Rectangle-2-Copy-4" fill="#F7F7F7" x="127" y="0" width="125" height="495"></rect>
            <rect id="Rectangle-2-Copy-2" fill="#F7F7F7" x="409" y="0" width="125" height="495"></rect>
            <g id="Rectangle-2-Copy-5">
                <use fill="#FFDFDF" fill-rule="evenodd" xlink:href="#path-1"></use>
                <rect stroke="#FFFFFF" stroke-width="4" x="395" y="-2" width="12" height="499"></rect>
            </g>
            <g id="Rectangle-2-Copy-6">
                <use fill="#FFDFDF" fill-rule="evenodd" xlink:href="#path-2"></use>
                <rect stroke="#FFFFFF" stroke-width="4" x="254" y="-2" width="12" height="499"></rect>
            </g>
            <g id="Rectangle-2-Copy-8">
                <use fill="#FFDFDF" fill-rule="evenodd" xlink:href="#path-3"></use>
                <rect stroke="#FFFFFF" stroke-width="4" x="113" y="-2" width="12" height="499"></rect>
            </g>
            <g id="Rectangle-2-Copy-7">
                <use fill="#FFDFDF" fill-rule="evenodd" xlink:href="#path-4"></use>
                <rect stroke="#FFFFFF" stroke-width="4" x="536" y="-2" width="12" height="499"></rect>
            </g>
            <g id="Rectangle-2-Copy-9">
                <use fill="#FFDFDF" fill-rule="evenodd" xlink:href="#path-5"></use>
                <rect stroke="#FFFFFF" stroke-width="4" x="677" y="-2" width="12" height="499"></rect>
            </g>
            <rect id="Rectangle-2-Copy-3" fill="#F7F7F7" x="550" y="0" width="125" height="495"></rect>
            <g id="Combined-Shape">
                <use fill="#FFFFFF" fill-rule="evenodd" xlink:href="#path-6"></use>
                <path stroke="#FC4E4E" stroke-width="3" d="M400.928927,272.746296 L399.870589,271.821283 L398.804826,273.040659 L399.799515,274.178717 L400.928927,273.191584 L400.928927,272.746296 Z M120.071073,273.253704 L121.129411,274.178717 L122.195174,272.959341 L121.200485,271.821283 L120.071073,272.808416 L120.071073,273.253704 Z M398.804831,273.040652 L399.464617,273.795548 L399.912875,274.308416 L401,274.308416 L401,272.808416 L400.928927,272.746296 L400.928927,271.691584 L399.983948,271.691584 L398.804831,273.040652 Z M122.195169,272.959348 L121.535383,272.204452 L121.087125,271.691584 L120,271.691584 L120,273.191584 L120.071073,273.253704 L120.071073,274.308416 L121.016052,274.308416 L122.195169,272.959348 Z M122.195169,272.959348 L240.367765,137.754078 C247.209331,129.412789 253.990059,125.392823 260.744858,125.502185 C267.509266,125.611703 274.306557,129.861589 281.127981,138.400366 L398.804831,273.040652 L280.632235,408.245922 C273.790669,416.587211 267.009941,420.607177 260.255142,420.497815 C253.490734,420.388297 246.693443,416.138411 239.872019,407.599634 L122.195169,272.959348 Z"></path>
            </g>
            <g id="Combined-Shape-Copy">
                <use fill="#FFFFFF" fill-rule="evenodd" xlink:href="#path-7"></use>
                <path stroke="#FC4E4E" stroke-width="3" d="M681.928927,272.746296 L680.870589,271.821283 L679.804826,273.040659 L680.799515,274.178717 L681.928927,273.191584 L681.928927,272.746296 Z M401.071073,273.253704 L402.129411,274.178717 L403.195174,272.959341 L402.200485,271.821283 L401.071073,272.808416 L401.071073,273.253704 Z M679.804831,273.040652 L680.464617,273.795548 L680.912875,274.308416 L682,274.308416 L682,272.808416 L681.928927,272.746296 L681.928927,271.691584 L680.983948,271.691584 L679.804831,273.040652 Z M403.195169,272.959348 L402.535383,272.204452 L402.087125,271.691584 L401,271.691584 L401,273.191584 L401.071073,273.253704 L401.071073,274.308416 L402.016052,274.308416 L403.195169,272.959348 Z M403.195169,272.959348 L521.367765,137.754078 C528.209331,129.412789 534.990059,125.392823 541.744858,125.502185 C548.509266,125.611703 555.306557,129.861589 562.127981,138.400366 L679.804831,273.040652 L561.632235,408.245922 C554.790669,416.587211 548.009941,420.607177 541.255142,420.497815 C534.490734,420.388297 527.693443,416.138411 520.872019,407.599634 L403.195169,272.959348 Z"></path>
            </g>
            <g id="Oval">
                <use fill="#FFFFFF" fill-rule="evenodd" xlink:href="#path-8"></use>
                <circle stroke="#FC4E4E" stroke-width="4" cx="401.5" cy="273.5" r="14.5"></circle>
            </g>
            <circle id="Oval" fill="#FC4E4E" cx="401.5" cy="273.5" r="8.5"></circle>
            <text id="Problem" font-family="ProximaNova-Bold, Proxima Nova" font-size="24" font-weight="bold" fill="#000000">
                <tspan x="135" y="53">Problem</tspan>
            </text>
            <text id="Solution" font-family="ProximaNova-Bold, Proxima Nova" font-size="24" font-weight="bold" fill="#000000">
                <tspan x="418" y="53">Solution</tspan>
            </text>
            <g id="Group" transform="translate(135.000000, 63.000000)" font-size="18" font-family="ProximaNova-Bold, Proxima Nova" fill="#FC4E4E" font-weight="bold">
                <text id="Discover">
                    <tspan x="0" y="18">Discover</tspan>
                </text>
                <text id="Define">
                    <tspan x="141" y="18">Define</tspan>
                </text>
                <text id="Develop">
                    <tspan x="283" y="18">Develop</tspan>
                </text>
                <text id="Deliver">
                    <tspan x="423" y="18">Deliver</tspan>
                </text>
            </g>
        </g>
    </g>
</svg>