<?xml version="1.0" encoding="UTF-8"?>
<svg width="121px" height="25px" viewBox="0 0 121 25" version="1.1" xmlns="http://www.w3.org/2000/svg" xmlns:xlink="http://www.w3.org/1999/xlink">
    <!-- Generator: Sketch 47.1 (45422) - http://www.bohemiancoding.com/sketch -->
    <title>logo--zalando</title>
    <desc>Created with Sketch.</desc>
    <defs></defs>
    <g id="Page-1" stroke="none" stroke-width="1" fill="none" fill-rule="evenodd">
        <g id="logo--zalando" fill-rule="nonzero" fill="#FFFFFF">
            <path d="M40.34,20.29 L29.94,20.29 C29.59,20.29 29.33,20.02 29.33,19.66 L29.33,18.36 C29.32,18.04 29.42,17.9 29.62,17.65 L37.9,7.8 L29.79,7.8 C29.44,7.8 29.18,7.53 29.18,7.17 L29.18,6.25 C29.18,5.9 29.44,5.62 29.79,5.62 L40.29,5.62 C40.64,5.62 40.9,5.89 40.9,6.25 L40.9,7.58 C40.9,7.82 40.82,8.02 40.64,8.24 L32.35,18.12 L40.35,18.12 C40.7,18.12 40.96,18.39 40.96,18.75 L40.96,19.67 C40.95,20.02 40.69,20.29 40.34,20.29 Z M60.83,20.56 L60.83,20.56 C61.58,20.55 62.13,20.39 62.34,20.15 C62.41,20.06 62.45,19.96 62.44,19.86 C62.43,19.78 62.43,19.78 62.23,18.8 L62.22,18.78 C62.18,18.52 62,18.41 61.85,18.41 C61.84,18.41 61.82,18.41 61.83,18.41 C61.83,18.41 61.64,18.4 61.46,18.4 L61.46,18.4 C60.93,18.38 60.49,18.3 60.48,17.51 L60.48,0.84 C60.48,0.56 60.32,0.28 60,0.27 L59.91,0.27 L58.46,0.65 C58.21,0.68 57.96,0.86 57.97,1.19 L57.97,17.55 C57.98,19.49 58.99,20.56 60.83,20.56 L60.83,20.56 L60.83,20.56 Z M90.19,20.29 L88.89,20.29 C88.54,20.29 88.28,20.02 88.28,19.66 L88.28,9.64 C88.26,7.94 87.76,7.47 85.98,7.45 C83.97,7.45 81.93,7.97 81.25,8.16 L81.25,19.67 C81.25,20.03 81.01,20.3 80.67,20.3 L79.35,20.3 C79,20.3 78.74,20.03 78.74,19.67 L78.74,8.42 C78.72,7.38 78.82,6.66 80.26,6.18 C81.64,5.69 84.29,5.28 86.04,5.28 C89.37,5.28 90.8,6.52 90.8,9.4 L90.8,19.67 C90.79,20.02 90.53,20.29 90.19,20.29 L90.19,20.29 Z M103.2,7.86 C102.72,7.73 101.37,7.42 99.85,7.42 C97.06,7.45 95.89,8.22 95.86,12.98 C95.89,18.2 97.41,18.48 99.88,18.51 L99.88,18.62 L99.88,18.5 C101.42,18.5 102.74,18.17 103.21,18.04 L103.21,7.86 L103.2,7.86 L103.2,7.86 Z M103.89,20.1 L103.74,20.14 C102.92,20.35 101.79,20.65 99.81,20.65 L99.8,20.65 C94.35,20.64 93.27,17.82 93.27,12.95 C93.28,7.37 95,5.29 99.64,5.28 C101.28,5.28 102.4,5.5 103.21,5.7 L103.2,1.2 C103.19,1 103.28,0.74 103.74,0.66 L105.19,0.28 L105.27,0.28 C105.6,0.29 105.72,0.59 105.72,0.85 L105.72,17.75 C105.74,18.81 105.62,19.72 103.89,20.1 L103.89,20.1 Z M114.46,18.47 C110.89,18.45 110.71,16.57 110.68,12.97 C110.71,9.35 110.88,7.46 114.46,7.44 C118.03,7.46 118.22,9.35 118.24,12.97 C118.21,16.57 118.03,18.46 114.46,18.47 L114.46,18.47 Z M114.46,5.27 C108.57,5.28 108.07,9.25 108.06,12.97 C108.06,16.68 108.56,20.63 114.46,20.64 C120.35,20.63 120.85,16.69 120.86,12.97 C120.85,9.08 120.35,5.28 114.46,5.27 L114.46,5.27 L114.46,5.27 Z M73.61,13.05 C73.02,13.06 70.16,13.1 69.02,13.35 L68.93,13.37 C67.65,13.66 66.64,13.9 66.62,15.84 C66.62,18.29 68.45,18.51 70.32,18.52 L70.32,18.63 L70.32,18.52 C71.49,18.52 72.6,18.35 73.61,18.01 L73.61,13.05 L73.61,13.05 L73.61,13.05 Z M76.14,9.48 L76.14,17.26 C76.17,19.19 75.68,19.81 73.78,20.26 C72.95,20.44 71.67,20.64 70.29,20.65 C68.26,20.64 64.03,20.64 64.02,15.96 C64.01,12.28 66.16,11.63 68.77,11.23 C70.48,10.95 72.22,10.91 73.1,10.91 C73.34,10.91 73.49,10.91 73.58,10.91 L73.58,9.58 C73.57,8.7 73.57,8.17 72.77,7.86 C72.28,7.65 71.54,7.55 70.45,7.55 C68.65,7.55 67.03,7.96 65.96,8.24 L65.55,8.34 C65.51,8.35 65.46,8.36 65.4,8.37 C65.21,8.37 65,8.25 64.93,8 L64.92,7.98 L64.68,6.73 L64.68,6.66 C64.68,6.37 64.89,6.19 65.09,6.13 C65.95,5.8 68.23,5.28 70.69,5.28 C72.48,5.28 73.78,5.52 74.65,6.01 C76.15,6.81 76.14,8.29 76.14,9.48 Z M52.46,18.02 C51.45,18.36 50.34,18.53 49.17,18.53 L49.17,18.64 L49.17,18.53 C47.3,18.51 45.47,18.3 45.47,15.85 C45.48,13.9 46.49,13.67 47.78,13.38 L47.87,13.36 C49.01,13.11 51.87,13.06 52.46,13.06 L52.46,18.02 L52.46,18.02 L52.46,18.02 Z M53.5,6.01 C52.63,5.52 51.33,5.28 49.54,5.28 C47.08,5.28 44.81,5.8 43.94,6.13 C43.75,6.19 43.54,6.37 43.53,6.66 L43.53,6.72 L43.77,7.97 L43.78,8 C43.86,8.25 44.06,8.37 44.25,8.37 C44.31,8.37 44.36,8.36 44.4,8.34 L44.81,8.24 C45.88,7.97 47.5,7.55 49.3,7.55 C50.39,7.55 51.13,7.65 51.63,7.86 C52.43,8.17 52.43,8.7 52.44,9.58 L52.44,10.89 C52.35,10.89 52.19,10.89 51.95,10.89 C51.07,10.89 49.33,10.93 47.62,11.21 C45.01,11.62 42.85,12.26 42.87,15.95 C42.87,20.63 47.1,20.64 49.14,20.64 C50.52,20.64 51.79,20.43 52.63,20.25 C54.53,19.8 55.01,19.18 54.99,17.25 L54.99,9.48 C54.98,8.29 54.98,6.81 53.5,6.01 L53.5,6.01 Z" id="Shape"></path>
            <path d="M22,9.58 C20.29,7.43 17.91,5.35 14.78,3.47 L14.77,3.46 C11.63,1.62 8.67,0.55 6,0.11 C4.34,-0.17 3.54,0.15 3.18,0.37 C2.82,0.58 2.15,1.13 1.55,2.74 C0.59,5.33 0.03,8.49 0,12.2 L0,12.21 C0.02,15.92 0.59,19.09 1.55,21.68 C2.15,23.3 2.82,23.84 3.18,24.06 C3.54,24.27 4.34,24.6 6,24.32 C8.67,23.88 11.62,22.8 14.77,20.96 L14.78,20.95 C17.91,19.07 20.29,16.99 22,14.84 C23.06,13.5 23.19,12.63 23.19,12.21 C23.19,11.79 23.07,10.92 22,9.58" id="Shape"></path>
        </g>
    </g>
</svg>