<?xml version="1.0" encoding="UTF-8"?>
<svg width="304px" height="317px" viewBox="0 0 304 317" version="1.1" xmlns="http://www.w3.org/2000/svg" xmlns:xlink="http://www.w3.org/1999/xlink">
    <!-- Generator: Sketch 47.1 (45422) - http://www.bohemiancoding.com/sketch -->
    <title>logo--a1</title>
    <desc>Created with Sketch.</desc>
    <defs></defs>
    <g id="Page-1" stroke="none" stroke-width="1" fill="none" fill-rule="evenodd">
        <g id="logo--a1">
            <path d="M271,0 L304,0 L304,202 L263,202 L263,70 L212,70 L212,40 C244.5848,40 271,22.09139 271,0 Z" id="Combined-Shape" fill="#FFFFFF"></path>
            <path d="M0.604110054,304.77597 L90.0099573,46.013519 L116.052033,32.2875049 L174.968881,46.013519 L246.58899,288.308273 L197.211321,296.359278 L179.314116,291.849777 L166.262767,248.194051 L104.606192,252.359375 L87.9781396,308.573651 L20.4998884,316.869099 L0.604110054,304.77597 Z M118.539494,200.083579 L152.937641,200.083579 L135.738568,137.79145 L118.539494,200.083579 Z" id="Combined-Shape" fill="#FFFFFF"></path>
            <polygon id="Combined-Shape" fill="#C1C1C1" opacity="0.545912591" points="179.314116 291.849777 166.271788 248.223821 183.107987 246.969742 197.386899 296.373973"></polygon>
            <polygon id="Combined-Shape" fill="#C1C1C1" opacity="0.545912591" points="172.168668 200.073709 152.923674 200.073709 135.671742 137.880916 143.841331 106.20962"></polygon>
            <polygon id="Combined-Shape" fill="#C1C1C1" opacity="0.545912591" points="115.838749 32.3999207 90.0099573 46.013519 0.604110054 304.77597 20.0907171 316.620395 20.7228212 316.820211"></polygon>
        </g>
    </g>
</svg>