<?xml version="1.0" encoding="UTF-8"?>
<svg width="85px" height="42px" viewBox="0 0 85 42" version="1.1" xmlns="http://www.w3.org/2000/svg" xmlns:xlink="http://www.w3.org/1999/xlink">
    <!-- Generator: Sketch 47.1 (45422) - http://www.bohemiancoding.com/sketch -->
    <title>logo--aok</title>
    <desc>Created with Sketch.</desc>
    <defs></defs>
    <g id="Page-1" stroke="none" stroke-width="1" fill="none" fill-rule="evenodd">
        <path d="M45.48127,0.51667 C36.92127,0.51667 29.98127,7.57167 29.98127,16.29792 C29.98127,25.01917 36.92127,32.07917 45.48127,32.07917 C54.06127,32.07917 61.01247,25.01917 61.01257,16.29792 C61.01257,7.57167 54.06127,0.51667 45.48127,0.51667 Z M78.23127,1.20417 L65.79377,13.04792 L65.79377,1.26667 L62.38757,1.26667 L62.38757,31.39167 L65.82497,31.39167 L65.82497,17.04792 L78.63757,31.36042 L83.35627,31.36042 L68.66877,14.95417 L68.76257,14.86042 L82.94997,1.20417 L78.23127,1.20417 Z M25.10627,1.26667 L1.98127,31.36042 L6.26257,31.36042 L12.04377,23.86042 L25.10627,23.86042 L25.10627,31.39167 L28.51257,31.39167 L28.51257,1.26667 L25.10627,1.26667 Z M45.48127,3.95417 C52.17877,3.95417 57.63747,9.48417 57.63757,16.29792 C57.63757,23.10667 52.17877,28.61043 45.48127,28.61042 C38.80127,28.61042 33.38757,23.10667 33.38757,16.29792 C33.38757,9.48417 38.80127,3.95417 45.48127,3.95417 Z M45.54377,5.73542 L43.04377,8.45417 C42.50507,9.05667 42.16877,9.86542 42.16877,10.73542 C42.16877,12.47043 43.44627,13.88542 45.07497,14.11042 L45.07497,18.82917 L42.54377,17.36042 C43.27997,15.76917 42.71127,13.84417 41.16877,12.95417 C40.41507,12.52167 39.58747,12.41292 38.82497,12.57917 L35.23127,13.45417 L36.32497,17.01667 C36.57497,17.76792 37.10377,18.44792 37.85627,18.89167 C39.29997,19.73542 41.08877,19.33667 42.10627,18.04792 L45.07497,19.79792 L45.07497,23.86042 L37.48127,23.86042 L38.19997,24.67292 L52.79377,24.67292 L53.48127,23.86042 L45.91877,23.86042 L45.91877,19.79792 L48.88757,18.04792 C49.90007,19.34167 51.71997,19.73792 53.16877,18.89167 C53.92127,18.44792 54.43747,17.76792 54.69997,17.01667 L55.79377,13.45417 L52.19997,12.57917 C51.42127,12.41292 50.60377,12.52167 49.85627,12.95417 C48.31627,13.84167 47.75747,15.74042 48.48127,17.32917 L45.91877,18.82917 L45.91877,14.14167 C47.60117,13.94667 48.91877,12.49417 48.91877,10.73542 C48.91877,9.86543 48.57627,9.05667 48.04377,8.45417 L45.54377,5.73542 Z M25.10627,6.86042 L25.10627,20.70417 L14.48127,20.70417 L25.10627,6.86042 Z M45.54377,7.01667 L47.32497,8.98542 C47.47127,9.14292 47.62747,9.32417 47.73127,9.51667 C47.92247,9.88167 48.04377,10.29917 48.04377,10.73542 C48.04377,12.13668 46.93497,13.26667 45.54377,13.26667 C44.16997,13.26667 43.04377,12.13667 43.04377,10.73542 C43.04377,10.29918 43.16747,9.88167 43.35627,9.51667 C43.45997,9.32417 43.59007,9.14292 43.76257,8.98542 L45.54377,7.01667 Z M39.54377,13.36042 C39.96387,13.36793 40.37007,13.47792 40.76257,13.70417 C41.95377,14.39167 42.37007,15.96042 41.69997,17.17292 C41.01247,18.38917 39.45627,18.82042 38.26257,18.14167 C37.89247,17.92667 37.59497,17.61167 37.38757,17.26667 C37.27247,17.08042 37.16877,16.86042 37.10627,16.64167 L36.35627,14.07917 L38.91877,13.45417 C39.12377,13.40418 39.32757,13.35792 39.54377,13.36042 Z M51.44997,13.36042 C51.67997,13.35793 51.89747,13.40417 52.10627,13.45417 L54.66877,14.07917 L53.91877,16.64167 C53.85877,16.86042 53.75127,17.08042 53.63757,17.26667 C53.41507,17.61167 53.13247,17.92667 52.76257,18.14167 C51.56127,18.82042 50.01377,18.38917 49.32497,17.17292 C48.66007,15.96042 49.06757,14.39167 50.26257,13.70417 C50.65127,13.47792 51.04757,13.36792 51.44997,13.36042 Z M16.73127,34.42292 C14.88747,34.41542 14.07497,36.04918 14.07497,37.76667 C14.07497,39.98292 15.25627,41.07918 16.57497,41.07917 C17.57247,41.07917 17.97507,40.49667 18.26257,40.11042 L18.38757,40.92292 L19.13757,40.92292 L19.13757,37.48542 L16.85627,37.48542 L16.85627,38.54792 L18.13757,38.54792 C17.90127,39.83042 17.07497,39.95417 16.82497,39.95417 C16.04877,39.95417 15.23127,39.48543 15.23127,37.76667 C15.23127,36.14917 15.97757,35.51667 16.79377,35.51667 C17.59627,35.51667 17.98127,36.30293 17.98127,36.54792 L19.13757,36.54792 C19.07497,35.68542 18.40747,34.42293 16.73127,34.42292 Z M0.07497,34.57917 L0.07497,40.92292 L2.41877,40.92292 C4.20377,40.92293 4.66877,38.97667 4.66877,37.61042 C4.66877,36.40542 4.27507,34.57917 2.44997,34.57917 L0.07497,34.57917 Z M41.23127,34.57917 L41.23127,36.82917 L41.19997,36.82917 C41.03627,36.51292 40.73627,36.07917 40.04377,36.07917 C39.15007,36.07918 38.35627,36.89792 38.35627,38.51667 C38.35627,39.82042 38.87997,41.04792 40.07497,41.04792 C40.51117,41.04793 40.97877,40.86417 41.23127,40.32917 L41.26257,40.32917 L41.26257,40.92292 L42.29377,40.92292 L42.29377,34.57917 L41.23127,34.57917 Z M43.35627,34.57917 L43.35627,40.92292 L44.41877,40.92292 L44.41877,38.20417 C44.41877,37.48667 44.80007,37.14167 45.26257,37.14167 C45.95127,37.14167 45.95007,37.70667 45.94997,38.04792 L45.94997,40.92292 L47.01257,40.92292 L47.01257,37.67292 C47.01257,36.63917 46.41757,36.07918 45.63757,36.07917 C45.04757,36.07917 44.55997,36.42417 44.41877,36.82917 L44.41877,34.57917 L43.35627,34.57917 Z M61.69997,34.57917 L61.69997,40.92292 L62.76257,40.92292 L62.76257,39.42292 L63.19997,38.89167 L64.16877,40.92292 L65.44997,40.92292 L63.98127,38.04792 L65.41877,36.20417 L64.10627,36.20417 L62.76257,38.01667 L62.76257,34.57917 L61.69997,34.57917 Z M5.54377,34.61042 L5.54377,35.76667 L6.60627,35.76667 L6.60627,34.61042 L5.54377,34.61042 Z M52.48127,34.61042 L52.48127,35.76667 L53.54377,35.76667 L53.54377,34.61042 L52.48127,34.61042 Z M54.82497,34.95417 L54.82497,36.20417 L54.26257,36.20417 L54.26257,37.11042 L54.82497,37.11042 L54.82497,39.95417 C54.82497,40.55917 54.99627,40.95418 55.91877,40.95417 L56.04377,40.95417 C56.20627,40.95417 56.36877,40.96292 56.54377,40.95417 L56.54377,39.98542 C56.46127,39.99667 56.39997,40.01667 56.32497,40.01667 C55.90257,40.01667 55.88747,39.91793 55.88757,39.64167 L55.88757,37.11042 L56.54377,37.11042 L56.54377,36.20417 L55.88757,36.20417 L55.88757,34.95417 L54.82497,34.95417 Z M1.16877,35.67292 L2.26257,35.67292 C2.74747,35.67292 3.51257,35.83917 3.51257,37.70417 C3.51247,38.74667 3.21627,39.82917 2.29377,39.82917 L1.16877,39.82917 L1.16877,35.67292 Z M9.29377,36.07917 C7.54377,36.07918 7.38757,37.89667 7.38757,38.45417 C7.38757,40.38168 8.25757,41.04792 9.38757,41.04792 C10.07127,41.04792 10.85997,40.68417 11.13757,39.54792 L10.04377,39.54792 C9.95877,39.88917 9.68127,40.04792 9.38757,40.04792 C8.53627,40.04792 8.48127,39.23792 8.44997,38.89167 L11.16877,38.89167 L11.16877,38.67292 C11.16877,36.51292 10.08377,36.07917 9.29377,36.07917 Z M21.91877,36.07917 C20.14877,36.07918 19.98127,37.89667 19.98127,38.45417 C19.98127,40.38168 20.83877,41.04792 21.98127,41.04792 C22.67247,41.04792 23.48007,40.68417 23.76257,39.54792 L22.66877,39.54792 C22.58377,39.88917 22.27757,40.04792 21.98127,40.04792 C21.12127,40.04792 21.07377,39.23792 21.04377,38.89167 L23.82497,38.89167 L23.82497,38.67292 C23.82507,36.51292 22.71877,36.07917 21.91877,36.07917 Z M26.26257,36.07917 C24.99757,36.07917 24.63747,36.98668 24.63757,37.67292 C24.63757,39.42042 27.13757,38.83667 27.13757,39.61042 C27.13757,39.79167 27.00127,40.11042 26.44997,40.11042 C25.77877,40.11042 25.57507,39.83042 25.57497,39.42292 L24.48127,39.42292 C24.51257,40.68292 25.49257,41.04792 26.41877,41.04792 C27.05877,41.04792 28.19997,40.80042 28.19997,39.42292 C28.19997,37.70292 25.66877,38.22542 25.66877,37.48542 C25.66877,37.27792 25.74257,37.04792 26.32497,37.04792 C26.90747,37.04792 26.99757,37.33292 27.04377,37.64167 L28.07497,37.64167 C27.99127,36.30667 27.05747,36.07918 26.26257,36.07917 Z M36.10627,36.07917 C35.32757,36.07917 35.03247,36.60418 34.88757,36.89167 L34.85627,36.89167 L34.85627,36.20417 L33.82497,36.20417 L33.82497,40.92292 L34.91877,40.92292 L34.91877,38.20417 C34.91877,37.48667 35.27877,37.14167 35.76257,37.14167 C36.42997,37.14167 36.45007,37.70667 36.44997,38.04792 L36.44997,40.92292 L37.51257,40.92292 L37.51257,37.67292 C37.51257,36.63917 36.90497,36.07918 36.10627,36.07917 Z M49.76257,36.07917 C47.98507,36.07918 47.79377,37.89667 47.79377,38.45417 C47.79377,40.38168 48.68627,41.04792 49.82497,41.04792 C50.50997,41.04792 51.30997,40.68417 51.60627,39.54792 L50.51257,39.54792 C50.41997,39.88917 50.11507,40.04792 49.82497,40.04792 C48.95997,40.04792 48.91627,39.23792 48.88757,38.89167 L51.63757,38.89167 L51.63757,38.67292 C51.63757,36.51292 50.55757,36.07917 49.76257,36.07917 Z M58.91877,36.07917 C57.66377,36.07917 57.26247,36.98668 57.26257,37.67292 C57.26257,39.42042 59.79377,38.83667 59.79377,39.61042 C59.79377,39.79167 59.66617,40.11042 59.10627,40.11042 C58.43497,40.11042 58.20007,39.83042 58.19997,39.42292 L57.10627,39.42292 C57.13497,40.68292 58.14627,41.04792 59.07497,41.04792 C59.72127,41.04792 60.85627,40.80042 60.85627,39.42292 C60.85627,37.70292 58.32507,38.22542 58.32497,37.48542 C58.32497,37.27792 58.39997,37.04792 58.98127,37.04792 C59.57247,37.04792 59.65377,37.33292 59.69997,37.64167 L60.73127,37.64167 C60.64997,36.30667 59.72377,36.07918 58.91877,36.07917 Z M67.98127,36.07917 C67.15627,36.07918 66.28997,36.29042 66.16877,37.73542 L67.19997,37.73542 C67.23127,37.45043 67.32247,37.07917 67.85627,37.07917 C68.12377,37.07917 68.54377,37.09292 68.54377,37.61042 C68.54377,37.88168 68.34247,37.95792 68.16877,37.98542 L67.23127,38.17292 C66.55877,38.28168 66.04377,38.76167 66.04377,39.67292 C66.04367,40.65543 66.66007,41.04792 67.26257,41.04792 C67.93997,41.04793 68.29877,40.68042 68.54377,40.39167 C68.54387,40.39168 68.73627,41.01667 69.41877,41.01667 C69.76007,41.01668 69.98127,40.92292 69.98127,40.92292 L69.98127,40.07917 C69.62637,40.07917 69.57497,39.84917 69.57497,39.70417 C69.57497,39.55293 69.57497,37.45417 69.57497,37.45417 C69.57497,36.30167 68.55997,36.07917 67.98127,36.07917 Z M72.16877,36.07917 C70.90497,36.07917 70.54377,36.98668 70.54377,37.67292 C70.54377,39.42042 73.04377,38.83667 73.04377,39.61042 C73.04377,39.79167 72.90127,40.11042 72.35627,40.11042 C71.68007,40.11042 71.48127,39.83042 71.48127,39.42292 L70.38757,39.42292 C70.41877,40.68292 71.39627,41.04792 72.32497,41.04792 C72.95747,41.04792 74.10627,40.80042 74.10627,39.42292 C74.10627,37.70292 71.57507,38.22542 71.57497,37.48542 C71.57497,37.27792 71.65497,37.04792 72.23127,37.04792 C72.81747,37.04792 72.90387,37.33292 72.94997,37.64167 L73.98127,37.64167 C73.89507,36.30667 72.96757,36.07918 72.16877,36.07917 Z M76.51257,36.07917 C75.24877,36.07917 74.88747,36.98668 74.88757,37.67292 C74.88757,39.42042 77.38747,38.83667 77.38757,39.61042 C77.38757,39.79167 77.24997,40.11042 76.69997,40.11042 C76.02257,40.11042 75.82497,39.83042 75.82497,39.42292 L74.73127,39.42292 C74.75877,40.68292 75.73877,41.04792 76.66877,41.04792 C77.30377,41.04792 78.44997,40.80042 78.44997,39.42292 C78.44997,37.70292 75.91877,38.22542 75.91877,37.48542 C75.91877,37.27792 75.99127,37.04792 76.57497,37.04792 C77.15747,37.04792 77.24757,37.33292 77.29377,37.64167 L78.32497,37.64167 C78.24377,36.30667 77.30887,36.07918 76.51257,36.07917 Z M80.94997,36.07917 C79.18127,36.07918 79.01257,37.89667 79.01257,38.45417 C79.01247,40.38168 79.90247,41.04792 81.04377,41.04792 C81.73627,41.04792 82.54747,40.68417 82.82497,39.54792 L81.73127,39.54792 C81.65007,39.88917 81.34127,40.04792 81.04377,40.04792 C80.18247,40.04792 80.10627,39.23792 80.07497,38.89167 L82.85627,38.89167 L82.85627,38.67292 C82.85627,36.51292 81.74747,36.07917 80.94997,36.07917 Z M29.10627,36.20417 L29.10627,39.29792 C29.10627,40.49917 29.68627,41.04793 30.48127,41.04792 C31.04377,41.04792 31.45377,40.74668 31.69997,40.23542 L31.69997,40.92292 L32.73127,40.92292 L32.73127,36.20417 L31.66877,36.20417 L31.66877,38.92292 C31.66877,39.76042 31.20997,39.98543 30.85627,39.98542 C30.53377,39.98542 30.16877,39.87167 30.16877,39.14167 L30.16877,36.20417 L29.10627,36.20417 Z M5.54377,36.26667 L5.54377,40.92292 L6.60627,40.92292 L6.60627,36.26667 L5.54377,36.26667 Z M52.48127,36.26667 L52.48127,40.92292 L53.54377,40.92292 L53.54377,36.26667 L52.48127,36.26667 Z M9.29377,37.11042 C9.63377,37.11042 10.04497,37.33417 10.10627,38.11042 L8.48127,38.11042 C8.54007,37.47793 8.79757,37.11042 9.29377,37.11042 Z M22.01257,37.11042 C22.35627,37.11042 22.76247,37.33417 22.82497,38.11042 L21.16877,38.11042 C21.22877,37.47793 21.50877,37.11042 22.01257,37.11042 Z M49.73127,37.11042 C50.06507,37.11042 50.47747,37.33417 50.54377,38.11042 L48.88757,38.11042 C48.94497,37.47793 49.21627,37.11042 49.73127,37.11042 Z M80.94997,37.11042 C81.29377,37.11042 81.70377,37.33417 81.76257,38.11042 L80.10627,38.11042 C80.16507,37.47793 80.44997,37.11042 80.94997,37.11042 Z M40.35627,37.17292 C41.09387,37.17292 41.26257,37.91917 41.26257,38.67292 C41.26257,39.36667 41.00877,40.04792 40.32497,40.04792 C39.64747,40.04792 39.44997,39.16792 39.44997,38.61042 C39.45007,37.87292 39.69257,37.17292 40.35627,37.17292 Z M68.54377,38.64167 L68.54377,39.20417 C68.54377,39.79918 68.06997,40.17292 67.60627,40.17292 C67.39867,40.17292 67.10627,40.01667 67.10627,39.57917 C67.10617,39.06668 67.43497,38.97042 67.82497,38.89167 C68.26637,38.81543 68.43627,38.74292 68.54377,38.64167 Z M83.66877,39.61042 L83.66877,40.92292 L84.82497,40.92292 L84.82497,39.61042 L83.66877,39.61042 Z" id="logo--aok" fill="#FFFFFF" fill-rule="nonzero"></path>
    </g>
</svg>