<?xml version="1.0" encoding="UTF-8"?>
<svg width="852px" height="147px" viewBox="0 0 852 147" version="1.1" xmlns="http://www.w3.org/2000/svg" xmlns:xlink="http://www.w3.org/1999/xlink">
    <!-- Generator: Sketch 47.1 (45422) - http://www.bohemiancoding.com/sketch -->
    <title>logo--lufthansa</title>
    <desc>Created with Sketch.</desc>
    <defs></defs>
    <g id="Page-1" stroke="none" stroke-width="1" fill="none" fill-rule="evenodd">
        <g id="logo--lufthansa" fill-rule="nonzero" fill="#FFFFFF">
            <path d="M145.99651,73.70887 C145.99651,113.97582 113.5347,146.26023 73.26784,146.26023 C33.17833,146.26023 0.71652,113.97582 0.71652,73.88623 C0.71652,32.90989 33.17833,0.80275 74.50955,0.80275 C113.7121,0.80275 145.99651,33.79676 145.99651,73.70887 Z M8.16678,73.70887 C8.16678,109.71854 37.25826,138.63261 73.26784,138.63261 C109.10002,138.63261 138.3689,109.89589 138.3689,73.88623 C138.3689,37.16718 109.63218,8.4305 72.73568,8.4305 C37.43561,8.4305 8.16678,37.87669 8.16678,73.70887 Z M57.30297,70.69334 L56.41606,72.46724 C53.22308,71.75761 47.01454,69.45159 40.62859,66.61341 L39.74168,68.20992 L42.40245,69.62907 C51.62662,74.41851 54.81955,75.48278 59.96379,75.48278 C70.78442,75.48278 78.94423,69.45159 82.84672,58.63108 C89.41006,57.21193 97.92463,56.67977 108.21307,56.67977 C116.90503,56.67977 124.35529,57.03453 134.11161,58.2762 L131.62819,61.29186 C127.19351,60.7597 118.8563,60.22746 113.00255,60.22746 C105.72965,60.22746 101.47236,60.22746 98.98894,60.40482 L97.92463,63.06572 C103.77838,62.71088 105.90705,62.71088 110.51913,62.71088 C118.50154,62.71088 124.71009,63.06572 129.85429,63.42048 L127.37087,66.79077 C118.14674,66.43605 114.06686,66.25865 107.14876,66.25865 C103.42363,66.25865 100.58545,66.43605 96.15077,66.61341 L94.90906,69.27419 C98.81159,68.91943 104.31058,68.74207 109.80957,68.74207 C115.30857,68.74207 121.69452,68.91943 125.41964,69.09683 L122.93623,72.28985 C120.27541,72.11249 115.30857,72.11249 111.40604,72.11249 C105.19749,72.11249 97.21508,72.46724 93.31255,72.99936 L92.07084,75.30538 C99.5211,74.59587 104.13318,74.24111 112.29299,74.24111 C115.48597,74.24111 117.43719,74.24111 121.16232,74.59587 L118.32414,77.96615 C113.3573,77.6114 111.76084,77.6114 109.80957,77.6114 C96.15077,77.6114 87.104,79.5627 78.05728,84.70686 C86.39449,93.04411 100.0533,98.72055 112.47039,98.72055 C113.5347,98.72055 114.06686,98.72055 116.72768,98.54315 L110.87388,104.57421 C78.05728,95.88225 72.20349,93.57623 42.0477,75.66013 C30.16275,68.91943 20.40648,64.30739 12.60142,62.00137 L13.66577,58.2762 C15.43964,58.63108 19.51952,59.69535 23.24465,61.11446 L25.01852,57.03453 L57.30297,70.69334 L57.30297,70.69334 Z" id="path5423"></path>
            <path d="M779.2685,103.15519 C779.2685,92.68936 786.0092,85.23914 799.3132,81.51397 C801.4418,80.98181 808.1825,79.38531 819.7127,77.43404 C824.5022,76.36977 826.4534,74.95062 826.4534,71.40285 C826.4534,67.50041 822.3735,65.0169 816.3423,65.0169 C809.0695,65.0169 804.4574,68.56467 804.4574,74.59587 L783.7031,74.59587 C783.7031,58.80844 796.1202,49.40683 816.8745,49.40683 C838.5157,49.40683 848.9816,58.45356 848.9816,76.72453 L848.9816,112.37931 C848.9816,118.4105 848.9816,118.4105 851.1102,122.13555 L829.8238,122.13555 L828.582,116.28188 C820.2449,123.02259 815.1006,124.97385 806.0539,124.97385 C790.4438,124.97385 779.2685,115.7496 779.2685,103.15519 M820.9544,90.56069 C818.471,90.91545 815.6328,91.62496 812.6172,92.3346 C805.167,94.28586 801.6192,97.3014 801.6192,101.73608 C801.6192,106.34812 804.9896,108.83154 810.8434,108.83154 C822.0187,108.83154 827.163,103.8647 827.163,93.57623 L827.163,88.78679 C824.3248,89.67382 823.2605,89.67382 820.9544,90.56069 M706.71714,98.8979 L729.0679,98.8979 L729.0679,99.78482 C729.0679,105.63861 733.8574,109.1863 741.485,109.1863 C748.0483,109.1863 752.1282,106.70288 752.1282,102.80047 C752.1282,98.72055 748.4031,96.23713 739.5337,94.81798 L732.2609,93.57623 C715.76386,90.73805 708.6684,84.70686 708.6684,73.70887 C708.6684,58.45356 721.2629,49.40683 742.0172,49.40683 C756.5629,49.40683 765.6097,53.30936 770.2217,61.82397 C772.173,65.19439 772.5278,66.43605 773.0599,74.06375 L751.7734,74.06375 C751.2413,67.50041 748.4031,65.0169 741.485,65.0169 C735.8086,65.0169 732.2609,67.14552 732.2609,70.87069 C732.2609,74.24111 735.6312,76.19229 743.2589,77.43404 L751.0639,78.85319 C767.5609,81.69133 775.1886,88.78679 775.1886,100.84917 C775.1886,115.57224 762.7715,124.97385 742.9041,124.97385 C719.48899,124.97385 706.71714,115.7496 706.71714,98.8979 M557.00242,103.15519 C557.00242,92.68936 563.92052,85.23914 577.22453,81.51397 C579.3532,80.98181 586.0939,79.5627 597.44669,77.43404 C602.41353,76.36977 604.36479,74.95062 604.36479,71.40285 C604.36479,67.50041 600.2849,65.0169 594.07636,65.0169 C586.80345,65.0169 582.36877,68.38732 582.19141,74.59587 L561.43711,74.59587 C561.43711,58.80844 573.8542,49.40683 594.43111,49.40683 C616.07233,49.40683 626.89296,58.45356 626.89296,76.72453 L626.89296,112.37931 C626.89296,118.4105 626.89296,118.4105 628.66683,122.13555 L607.55776,122.13555 L606.31605,116.28188 C599.04315,122.66783 592.8346,124.97385 583.78788,124.97385 C568.35521,124.97385 557.00242,115.7496 557.00242,103.15519 M598.8658,90.56069 C596.02758,91.09281 593.54416,91.80244 590.52858,92.3346 C583.07833,94.28586 579.5306,97.3014 579.5306,101.73608 C579.5306,106.34812 583.07833,108.83154 588.75472,108.83154 C599.57531,108.83154 604.89694,103.8647 604.89694,93.57623 L604.89694,88.78679 C601.88137,89.67382 600.99442,89.67382 598.8658,90.56069 M315.93338,112.91147 C312.91781,107.76727 312.38561,105.10649 312.38561,93.57623 L312.38561,52.42249 L335.26858,52.42249 L335.26858,92.68936 C335.26858,102.97783 338.10676,107.05763 345.37962,107.05763 C352.82988,107.05763 356.7324,102.26819 356.7324,92.68936 L356.7324,52.42249 L379.43794,52.42249 L379.43794,122.13555 L358.68367,122.13555 L357.97411,115.21749 C352.29772,121.24868 345.91177,123.90946 337.92936,123.90946 C328.17308,123.90946 320.01327,120.00689 315.93338,112.91147 M678.86737,122.13555 L678.86737,82.57824 C678.86737,72.28985 675.8518,68.03256 668.75629,68.03256 C661.30604,68.03256 657.58091,72.822 657.58091,82.57824 L657.58091,122.13555 L634.87538,122.13555 L634.87538,52.42249 L655.62964,52.42249 L656.3392,60.22746 C661.66079,53.30936 668.04674,50.29383 676.56135,50.29383 C686.31763,50.29383 694.12264,54.55115 698.20257,61.82397 C701.21815,67.14552 701.5729,70.16118 701.5729,81.69133 L701.5729,122.13555 L678.86737,122.13555 M529.15265,122.13555 L529.15265,82.57824 C529.15265,72.46724 525.95968,68.03256 519.04158,68.03256 C511.59132,68.03256 507.86619,72.822 507.86619,82.57824 L507.86619,122.13555 L484.98326,122.13555 L484.98326,25.10479 L507.86619,25.10479 L507.86619,60.22746 C511.94612,53.30936 517.97727,50.29383 526.66923,50.29383 C536.24816,50.29383 544.05317,54.37375 548.31045,61.82397 C551.32603,67.14552 551.68083,69.98383 551.68083,81.69133 L551.68083,122.13555 L529.15265,122.13555 M462.98728,122.13555 C449.50588,122.13555 443.29729,115.7496 443.29729,101.73608 L443.29729,67.6778 L433.71841,67.6778 L433.71841,52.42249 L443.29729,52.42249 L443.29729,30.42647 L466.00286,30.42647 L466.00286,52.42249 L478.95211,52.42249 L478.95211,67.6778 L466.00286,67.6778 L466.00286,95.35013 C466.18026,105.63861 466.88977,106.17076 475.58174,106.17076 L480.01642,106.17076 L480.01642,122.13555 L462.98728,122.13555 M393.9837,122.13555 L393.9837,67.6778 L384.05002,67.6778 L384.05002,52.42249 L393.9837,52.42249 L393.9837,50.29383 C393.9837,31.8455 400.9018,25.10479 418.64049,25.10479 L431.05759,25.10479 L431.05759,40.53746 L427.33246,40.53746 C418.81789,40.53746 416.68923,42.48877 416.68923,50.29383 L416.68923,52.42249 L430.17068,52.42249 L430.17068,67.6778 L416.68923,67.6778 L416.68923,122.13555 L393.9837,122.13555 M242.84987,122.13555 L242.84987,25.10479 L266.97455,25.10479 L266.97455,102.97783 L307.95093,102.97783 L307.95093,122.13555 L242.84987,122.13555" id="path5425"></path>
        </g>
    </g>
</svg>