<?xml version="1.0" encoding="UTF-8"?>
<svg width="710px" height="222px" viewBox="0 0 710 222" version="1.1" xmlns="http://www.w3.org/2000/svg" xmlns:xlink="http://www.w3.org/1999/xlink">
    <!-- Generator: Sketch 47.1 (45422) - http://www.bohemiancoding.com/sketch -->
    <title>logo--ktm</title>
    <desc>Created with Sketch.</desc>
    <defs></defs>
    <g id="Page-1" stroke="none" stroke-width="1" fill="none" fill-rule="evenodd">
        <polyline id="logo--ktm" fill="#FFFFFF" fill-rule="nonzero" points="0.4331 221.11846 99.4639 221.11846 124.3578 160.27348 170.1482 221.11846 383.474 221.11846 449.4341 159.66478 438.4409 221.11846 522.0262 221.11846 590.9848 160.30077 581.5355 221.11846 671.6627 221.11846 709.0945 51.4576 618.5133 51.4576 545.1034 116.14565 559.2762 51.4576 472.4203 51.4576 377.659 146.41826 417.2715 30.1705 562.1836 30.1705 568.8164 0.53389 188.8642 0.53389 177.6898 30.1705 317.4229 30.1705 258.5496 179.39824 212.1232 118.39887 292.3471 51.4576 225.2061 51.4576 142.8925 117.28136 170.603 51.4576 72.4803 51.4576 0.4331 221.11846"></polyline>
    </g>
</svg>