<?xml version="1.0" encoding="UTF-8"?>
<svg width="33px" height="39px" viewBox="0 0 33 39" version="1.1" xmlns="http://www.w3.org/2000/svg" xmlns:xlink="http://www.w3.org/1999/xlink">
    <!-- Generator: Sketch 47.1 (45422) - http://www.bohemiancoding.com/sketch -->
    <title>Group</title>
    <desc>Created with Sketch.</desc>
    <defs></defs>
    <g id="Page-1" stroke="none" stroke-width="1" fill="none" fill-rule="evenodd">
        <g id="Group" fill-rule="nonzero" fill="#FFFFFF">
            <path d="M3.1875,7.53125 C2.85625,7.5312501 2.5775,7.6475 2.4375,7.875 C2.2925,8.1100001 2.315,8.4125 2.46875,8.71875 L6.1875,15.15625 C6.19375,15.16875 6.19375,15.17625 6.1875,15.1875 L0.34375,25.5 C0.19125,25.803751 0.19875,26.10875 0.34375,26.34375 C0.48375,26.569999 0.73125,26.71875 1.0625,26.71875 L6.5625,26.71875 C7.385,26.71875 7.78125,26.16375 8.0625,25.65625 C8.0625,25.65625 13.7775,15.54875 14,15.15625 C13.9775,15.12 10.21875,8.5625 10.21875,8.5625 C9.945,8.0750002 9.53125,7.53125 8.6875,7.53125 L3.1875,7.53125 Z" id="path19359"></path>
            <path d="M26.29344,0 C25.47219,0 25.11594,0.5175 24.82094,1.0475 C24.82094,1.0475 12.97219,22.06 12.58219,22.75 C12.60219,22.7875 20.39719,37.0875 20.39719,37.0875 C20.66969,37.575 21.09094,38.135 21.93344,38.135 L27.42719,38.135 C27.75844,38.135 28.01719,38.01 28.15719,37.78375 C28.30344,37.54875 28.29969,37.23875 28.14594,36.93375 L20.39219,22.7675 C20.38469,22.75625 20.38469,22.7425 20.39219,22.73125 L32.56969,1.2 C32.72219,0.89625 32.72594,0.58625 32.58094,0.35125 C32.44094,0.125 32.18094,0 31.84969,0 L26.29344,0 Z" id="path19375"></path>
        </g>
    </g>
</svg>