<?xml version="1.0" encoding="UTF-8"?>
<svg width="710px" height="492px" viewBox="0 0 710 492" version="1.1" xmlns="http://www.w3.org/2000/svg" xmlns:xlink="http://www.w3.org/1999/xlink">
    <!-- Generator: Sketch 47.1 (45422) - http://www.bohemiancoding.com/sketch -->
    <title>logo--db</title>
    <desc>Created with Sketch.</desc>
    <defs></defs>
    <g id="Page-1" stroke="none" stroke-width="1" fill="none" fill-rule="evenodd">
        <path d="M98.2043039,87.0297471 L222.876317,87.0297471 C300.67891,87.0297471 346.376336,137.179597 346.376336,245.447421 C346.376336,360.745499 298.569886,406.911707 222.876317,406.911707 L98.2043039,406.911707 L98.2043039,87.0297471 Z M381.293991,87.0297471 L520.729671,87.0297471 C579.08177,87.0297471 608.375007,122.181525 608.375007,162.723316 C608.375007,215.919779 577.20687,233.964463 553.069522,239.120099 L553.069522,240.526189 C589.158609,245.213016 621.732583,270.756764 621.732583,319.73518 C621.49846,372.462834 583.300068,406.911707 512.058922,406.911707 L381.293991,406.911707 L381.293991,87.0297471 Z M175.303991,137.179597 L202.722329,137.179597 C247.013919,137.179597 270.448363,169.050666 270.448363,244.04133 C270.448363,330.046144 243.029996,355.824268 204.128448,355.824268 L175.303991,355.824268 L175.303991,137.179597 Z M457.690774,136.711068 L487.218135,136.711068 C517.448962,136.711068 529.869229,153.583786 529.869229,173.268965 C529.869229,197.17219 516.980153,213.810756 486.749607,213.810756 L457.690774,213.810756 L457.690774,136.711068 Z M457.690774,274.037753 L494.014266,274.037753 C529.869229,274.037753 539.477288,291.379252 539.477288,314.110763 C539.477288,340.591792 520.26089,355.824268 494.483047,355.824268 L457.690774,355.824268 L457.690774,274.037753 Z M73.1293651,0.790501374 L636.730935,0.790501374 C676.803945,0.790501374 709.377919,33.1300992 709.377919,73.2033617 L709.377919,419.097598 C709.377919,459.17086 676.803945,491.744835 636.730935,491.744835 L73.1293651,491.744835 C33.0561026,491.744835 0.716504776,459.17086 0.716504776,419.097598 L0.716504776,73.2033617 C0.716504776,33.1300992 33.0561026,0.790501374 73.1293651,0.790501374 Z M74.0666744,50.237446 L636.02775,50.237446 C648.448017,50.237446 658.524884,60.3143137 658.524884,72.7345808 L658.524884,419.566379 C658.524884,431.986646 648.448017,442.063485 636.02775,442.063485 L74.0666744,442.063485 C61.6464073,442.063485 51.5695677,431.986646 51.5695677,419.566379 L51.5695677,72.7345808 C51.5695677,60.3143137 61.6464073,50.237446 74.0666744,50.237446 L74.0666744,50.237446 Z" id="logo--db" fill="#FFFFFF"></path>
    </g>
</svg>