<?xml version="1.0" encoding="UTF-8"?>
<svg width="652px" height="220px" viewBox="0 0 652 220" version="1.1" xmlns="http://www.w3.org/2000/svg" xmlns:xlink="http://www.w3.org/1999/xlink">
    <!-- Generator: Sketch 47.1 (45422) - http://www.bohemiancoding.com/sketch -->
    <title>logo--otto</title>
    <desc>Created with Sketch.</desc>
    <defs>
        <polyline id="path-1" points="0 219.73125 0 0 651.1875 0 651.1875 219.73125"></polyline>
    </defs>
    <g id="Page-1" stroke="none" stroke-width="1" fill="none" fill-rule="evenodd">
        <g id="logo--otto" transform="translate(0.000000, -1.000000)">
            <g id="g3344" transform="translate(325.625000, 110.899870) scale(-1, 1) rotate(-180.000000) translate(-325.625000, -110.899870) translate(0.000000, 0.899870)">
                <g id="g3346">
                    <g id="g3348-Clipped">
                        <mask id="mask-2" fill="white">
                            <use xlink:href="#path-1"></use>
                        </mask>
                        <g id="path3352"></g>
                        <g id="g3348" mask="url(#mask-2)" fill-rule="nonzero" fill="#FFFFFF">
                            <path d="M589.63875,124.04625 L589.045,116.9575 C584.91,66.16 568.37375,50.505 547.995,50.505 C529.68,50.505 516.6825,62.90875 519.3425,95.98625 L519.93375,103.37375 C524.07125,153.87875 540.60625,169.8275 560.985,169.8275 C579.005,169.8275 592.29625,157.12375 589.63875,124.04625 M131.84375,124.04625 L131.25,116.9575 C127.12,66.16 110.5775,50.505 90.19875,50.505 C71.885,50.505 58.89375,62.90875 61.55125,95.98625 L62.1375,103.37375 C66.27625,153.87875 82.81625,169.8275 103.19625,169.8275 C121.21,169.8275 134.50125,157.12375 131.84375,124.04625 M566.89375,219.74 C534.4475,219.74 508.055,209.7375 489.4075,189.03125 C492.06375,196.22 493.46375,204.985 493.64625,215.31 L379.9375,215.31 C355.12875,215.31 340.95125,204.38375 331.205,176.32375 L336.2275,215.31 L221.33375,215.31 C200.3,215.31 185.85875,205.2525 180.64125,185.55625 C166.40375,208.37375 141.105,219.74 109.1,219.74 C48.26125,219.74 8.6825,184.59125 1.59375,109.57625 L0.7075,100.12375 C-5.495,33.07625 29.65375,0 84.29,0 C145.13375,0 184.71375,35.44125 191.80125,110.4625 L192.6875,119.91 C194.28625,137.11375 193.11875,152.06375 189.5975,164.805 L241.12125,164.805 L226.3575,38.3925 C223.4,13.29 236.99,1.77125 259.7275,1.77125 C273.61125,1.77125 278.335,2.6575 283.65125,3.5425 L301.965,164.805 L361.9225,164.805 L347.15375,38.3925 C344.20125,13.29 357.78625,1.77125 380.53,1.77125 C394.4075,1.77125 399.1375,2.6575 404.45375,3.5425 L422.76125,164.805 L452.3,164.805 C462.51875,164.805 470.77125,167.18 477.14125,171.875 C467.84125,155.48875 461.77125,134.795 459.3875,109.57625 L458.5025,100.12375 C452.3,33.07625 487.44375,0 542.08375,0 C602.93,0 642.50125,35.44125 649.59125,110.4625 L650.4775,119.91 C656.68125,186.6625 621.53625,219.74 566.89375,219.74" id="path3354"></path>
                        </g>
                    </g>
                </g>
            </g>
        </g>
    </g>
</svg>